<svg xmlns="http://www.w3.org/2000/svg" width="32" height="32" viewBox="0 0 32 32"><g fill="#1852a4"><path d="M15.88 17.63c-.01-.06.01-.06.18-.06.1 0 .19.02.2.03.01.02-.01.03-.04.03-.04 0-.03.01.02.03.06.02.02.03-.14.03-.2 0-.22 0-.22-.06M14.14 17.27c.02-.02.01-.03-.03-.02-.06.02-.63-.33-.62-.38 0-.02-.01-.03-.02-.02-.02.01-.04-.01-.06-.03q-.03-.045-.03-.03c0 .02-.06-.03-.13-.09-.07-.07-.11-.13-.1-.15s.01-.03-.01-.01c-.03.03-.24-.17-.22-.2.01-.02 0-.02-.03-.02-.02.01-.04-.02-.04-.04 0-.03-.01-.05-.02-.04-.04.03-.22-.23-.19-.28.01-.02 0-.02-.02-.01-.03.02-.09-.09-.08-.15 0-.02-.01-.02-.02-.01-.04.02-.17-.22-.14-.27.01-.02.01-.03-.01-.02s-.07-.07-.13-.21c-.11-.26-.11-.29-.06-.31.02-.01.02-.02-.02-.02-.07 0-.1-.14-.17-.55-.06-.37-.06-.88 0-1.28.05-.33.14-.71.17-.69.01.01.02-.03.02-.08 0-.11.29-.7.32-.67.02.01.03-.01.02-.04 0-.03.02-.05.04-.04.03 0 .03-.01.02-.03-.03-.04.17-.32.21-.29.02.01.03.01.01-.02-.02-.02.03-.09.12-.17.08-.08.13-.14.12-.14q-.015 0 .03-.03t.06 0c.01.02.04.02.06 0 .04-.03.04-.03-.01-.03-.03 0-.06-.01-.06-.02 0-.03.14-.13.18-.14q.03 0 .03-.03c-.02-.03.25-.26.28-.23.01.01.02 0 .02-.02 0-.06.36-.26.43-.24.04.01.05.01.02-.01s-.01-.05.08-.09c.14-.08.36-.15.4-.14.02.01.04-.01.05-.03s.07-.04.12-.04.09-.02.08-.03c-.01-.02.02-.03.06-.02.05.01.08.01.07-.01-.02-.03.17-.07.26-.04.05.01.08.01.06-.02-.05-.08 1.04-.09 1.36-.01.09.02.14.05.14.08 0 .04-.04.04-.28.02-.36-.03-1.17-.03-1.22.02-.02.02-.12.03-.23.04-.12.01-.19.02-.19.04s-.03.05-.08.06c-.08.02-.08.03-.08.25 0 .19-.01.23-.07.27-.04.02-.06.05-.05.06s-.05.06-.13.11c-.13.08-.15.08-.17.03s-.02-.04-.02.01c0 .08-.11.15-.17.12-.03-.01-.05 0-.05.02s.02.03.04.02 0 .01-.04.04c-.04.04-.17.14-.28.23-.2.17-.43.43-.61.7-.06.09-.12.15-.13.14-.02-.01-.02-.01-.01.01.03.04-.07.24-.1.22-.02-.01-.04 0-.05.02-.01.03-.01.03.01.02.05-.03.05.02-.02.17-.03.08-.07.12-.08.09q-.015-.03 0 .06c.01.08 0 .11-.05.15-.04.03-.07.08-.06.11 0 .03.01.03.03-.02.03-.05.03-.05.01.02-.01.04-.02.11-.02.14 0 .05-.01.05-.03.02s-.03-.03-.05.01c-.01.03-.01.06 0 .07.04.01.01.96-.03 1-.02.03-.02.05.01.08s.03.03.02-.03c-.01-.03-.01-.05 0-.04.03.03.15.57.15.69 0 .05.01.07.02.05s.04.02.06.08.03.13.02.14c-.01.02-.01.03.01.02s.07.05.11.14c.04.08.07.14.05.13s-.03 0-.02.02.03.04.04.03c.03 0 .11.09.11.13 0 .02-.02.02-.04 0-.03-.01-.03-.01-.02.01q.03.03.06.03c.02 0 .04.02.05.04.01.03 0 .03-.03.02-.03-.02-.03-.01-.02 0 .02.02.04.03.05.03.04 0 .28.28.28.33 0 .02.02.03.03.02.02-.01.04.03.05.08.01.07.03.09.04.06q.03-.045.03 0 0 .03.03.03c.04-.03.1.06.07.09-.01.02-.01.02.01.01.05-.03.17.07.15.11-.01.02-.01.03.01.01.04-.03.17.05.14.08-.01.01 0 .03.02.04.03.01.03.01.02-.01-.03-.05-.02-.05.17.06.09.05.13.09.09.08-.07-.02-.06-.01.02.03s.09.05.03.07c-.04.01-.12 0-.19-.03-.13-.05-.13-.05-.12.07.01.09 0 .13-.04.17-.05.05-.05.06.03.08.06.02.08.05.08.12 0 .05-.02.09-.03.09-.02 0-.02-.02-.01-.04zm-.96-5.5c0-.02-.03 0-.06.04s-.06.08-.06.09.03-.01.06-.04.06-.07.06-.09M15.31 17.04c0-.06.01-.08.05-.06.06.03 1.07.03 1.11 0 .02-.01.03.02.03.06 0 .08 0 .08-.59.08s-.59 0-.59-.08zM16.75 16.97c0-.04.03-.06.09-.08.05-.01.11-.03.13-.04.03-.01.05 0 .05.04 0 .08-.07.13-.17.13-.08 0-.1-.01-.1-.06zM15.57 16.65c-.02-.02-.04-.05-.04-.06s.17-.03.39-.03c.35 0 .39.01.39.06 0 .04-.01.04-.03.01s-.03-.03-.04.01c-.02.04-.08.05-.33.05-.2 0-.32-.01-.34-.04"/><path d="M14.53 16.38c-.03-.02-.05-.05-.05-.07s-.02-.04-.05-.05c-.04-.01-.04-.01 0 .02.03.02.03.03.01.03-.06 0-.26-.15-.23-.17.01-.02.01-.02-.02 0-.07.04-.58-.43-.57-.52.01-.02-.01-.04-.03-.04-.05 0-.18-.16-.3-.4-.13-.22-.13-.26-.08-.22.02.01.03.01.01-.02-.01-.02-.03-.03-.05-.02-.04.02-.16-.42-.21-.75-.06-.41-.06-.55.03-1.11.01-.06.03-.09.04-.09.01.01.02-.02.01-.07s0-.08.02-.06c.02.01.03-.01.02-.06s0-.08.02-.06c.02.01.04 0 .06-.02.01-.03.01-.03-.01-.02-.04.03-.05-.01-.02-.09.01-.03.03-.04.05-.03s.02 0 .01-.02c-.03-.06.16-.42.3-.56.06-.06.11-.13.1-.14-.02-.04.19-.24.22-.22.02.01.02.01.01-.01-.05-.08.71-.64.8-.58.02.01.03.01.01-.01-.03-.04.09-.08.14-.05.02.01.03.01.02-.01-.04-.07.43-.2.82-.24.16-.01.17-.01.16.05-.01.05-.03.07-.1.08-.17.01-.78.18-.82.22-.02.02-.09.04-.15.04-.09 0-.11.01-.11.08 0 .04-.03.11-.07.14-.07.07-.07.08-.05.62.01.46.01.57-.03.64-.03.06-.03.1-.02.11.05.03.08.48.04.61-.02.06-.05.11-.07.11s-.02.08-.01.19c.02.15.01.2-.03.23-.06.05-.11.48-.08.73.01.1.02.28.01.38-.01.15-.01.19.03.19.03 0 .04.06.04.24 0 .13.01.25.03.26s.04.13.06.26c.02.24.02.25.13.29.07.03.11.07.11.11s-.02.06-.05.04c-.03-.01-.04-.01-.03.02.03.04-.01.05-.08.01zM15.23 15.57c-.09-.01-.1-.03-.1-.09.01-.09.02-.09.08-.02.03.03.03.03.02.01-.02-.03 0-.04.1-.03.21.03.25.04.26.09.01.04-.01.05-.13.05-.08 0-.18-.01-.23-.02zM16.29 15.48c.01-.03.08-.08.16-.11.15-.06.15-.06.14.03-.01.11-.04.13-.19.13-.09 0-.12-.01-.11-.05M5.32 15.17c0-.17 0-.24.01-.15s.01.23 0 .31-.01.01-.01-.17z"/><path d="M14.54 15.08c0-.23.01-.3.04-.3s.03.02.03.03c-.01.02 0 .03.01.03.02 0 .03-.05.03-.12q0-.135-.03-.06c-.02.06-.03.06-.05.01-.01-.03-.02-.08-.01-.11.01-.05.01-.05.07 0 .04.04.05.11.05.36 0 .19-.01.32-.04.34-.03.03-.03.04 0 .04.02 0 .04.02.04.03 0 .02-.03.03-.08.03-.07 0-.07-.01-.07-.3zM15.25 15.18c0-.02-.01-.03-.02-.02s-.05.01-.08-.01c-.06-.03-.06-.03 0-.08.05-.04.05-.04-.02-.03-.05.01-.07.01-.05-.02.03-.05.15-.05.2 0s.05.18.01.18c-.02 0-.03-.02-.03-.04zM5.16 14.88c0-.06.01-.08.02-.05s.01.08 0 .11-.02 0-.02-.06M5.33 14.67c.01-.1.02-.19.03-.2s.01.06 0 .16-.02.19-.03.2-.01-.06-.01-.16zM4.86 14.38c.01-.05.02-.18.03-.3s.03-.21.03-.2c.03.03-.03.58-.05.58s-.02-.04-.01-.08M5.35 14.31c0-.03.01-.06.03-.06s.03.03.03.06-.01.06-.03.06c-.01 0-.03-.03-.03-.06M5.37 14.21c-.03-.07-.03-.21 0-.21.02 0 .03-.05.02-.13-.01-.1-.01-.12.02-.09.03.04.03.03.04-.03 0-.06.01-.06.02-.02.01.03 0 .07-.02.09s-.03.09-.02.16c.01.09 0 .11-.02.08s-.03-.01-.01.06c.01.05.01.1 0 .1s-.02 0-.02-.01zM5.2 14.03c-.03-.04.02-.38.04-.38.01 0 .02.07.02.14 0 .09-.01.13-.02.1-.02-.03-.03-.02-.03.04 0 .04.02.09.04.1.03.01.03.02 0 .02-.02 0-.05-.01-.06-.03zM5.42 13.61c-.03-.06.01-.14.06-.14.03 0 .03.01 0 .02-.02.01-.04.04-.04.08 0 .07 0 .07.03.01s.03-.06.03.01c0 .08-.05.09-.08.02M5.22 13.55c0-.04.01-.05.02-.03.02.03.02.03.04 0s.03-.03.03.01c0 .03-.02.06-.05.07s-.05 0-.04-.05M4.99 13.42c.03-.12.04-.14.04-.06 0 .03-.02.08-.03.11-.03.03-.03.02-.01-.05M5.26 13.37c0-.04.01-.09.04-.12s.03-.06.02-.09c-.05-.08-.03-.1.02-.05.06.06.03.22-.03.18q-.045-.03 0 .03c.03.04.03.05 0 .08s-.04.02-.04-.03zM5.5 13.31c-.01-.06-.01-.11.01-.1.01.01.03-.03.04-.09.01-.05.03-.09.03-.08.01.01-.01.1-.03.2-.03.18-.04.18-.05.07M16.25 13.32c-.06-.01-.07-.02-.03-.04.03-.02.03-.03-.01-.03-.03 0-.05-.01-.04-.03s.06-.03.11-.03c.08 0 .09.01.09.08 0 .04-.01.08-.02.08-.02 0-.06-.01-.1-.02zM5.03 13.18c0-.06.02-.12.03-.13.02-.02.03.02.01.1-.03.16-.04.17-.04.03M5.36 13.01c.01-.03.02-.09.03-.13s.01-.07-.02-.07q-.03 0-.03-.03c0-.02.02-.02.05-.01.04.01.05.04.03.13-.01.06-.03.13-.05.14-.02.02-.03.01-.02-.03zM5.55 12.88c0-.09.02-.12.05-.13s.05.01.04.03-.02.08-.03.13c-.03.12-.07.1-.07-.03zM16.71 12.79c-.03-.08-.02-.19.01-.22.02-.01.03.01.03.04 0 .05.01.05.03.01.03-.04.03-.04.03 0 .02.18.02.22-.03.22-.03 0-.07-.02-.08-.05zM15.69 12.71c0-.11.03-.13.08-.03.05.11.05.11-.02.11-.04 0-.06-.02-.06-.07z"/><path d="M5.38 12.73c-.06-.04-.01-.22.06-.23.03-.01.05-.03.04-.05s0-.06.02-.08c.02-.03.03-.05.02-.07-.03-.03-.06.01-.06.1 0 .04-.02.08-.03.08s-.02-.03-.01-.07.03-.11.04-.16.04-.09.07-.09.04-.01.02-.04c-.04-.05.01-.33.06-.33.02 0 .03-.01.01-.03-.01-.02.01-.11.05-.21s.09-.27.13-.38c.04-.12.1-.23.15-.27s.08-.08.06-.08c-.01 0-.04.03-.08.05-.05.05-.05.05-.03-.02.01-.04.04-.09.07-.12.03-.02.04-.07.04-.1s.02-.06.03-.05c.02.01.04-.03.05-.08s.03-.1.05-.11.02-.03 0-.04-.03-.04-.02-.07q.03-.06-.03-.03c-.1.04-.08-.06.09-.39.23-.46.39-.69.45-.67.04.02.04.01.01-.02s-.03-.06.03-.16c.04-.07.08-.11.1-.1s.02.01.01-.01c-.03-.04.22-.4.27-.4.02 0 .04-.03.04-.05 0-.07.36-.53.39-.51.01.01.03 0 .04-.02s0-.03-.02-.03c-.03 0-.03-.01 0-.05.02-.03.05-.04.08-.03.02.01.03.01.01-.01-.04-.04.19-.3.28-.3.04 0 .08-.01.08-.03s-.03-.02-.05-.01c-.05.02-.05.01.01-.04.03-.03.07-.06.08-.05s.02-.01.01-.03c-.02-.05.38-.46.42-.42.01.02.04.03.07.04.04.01.03 0-.01-.03-.05-.04-.05-.05.03-.13.05-.04.09-.08.1-.08.01.01.01 0 0 0-.01-.02.19-.22.22-.22.02 0 .09-.06.17-.14.09-.09.16-.13.19-.12s.04 0 .03-.02c-.02-.04.37-.35.44-.35.02 0 .04-.02.04-.03 0-.02.02-.02.04-.01s.03.01.01-.01c-.02-.04.08-.11.12-.08.01.01.02 0 .02-.02s.02-.03.04-.02.03.01.02-.01c-.03-.04.28-.23.34-.21.04.02.05.01.01-.01-.03-.03-.02-.04.06-.08.05-.03.12-.04.13-.03.02.01.03.01.01-.01-.03-.04.08-.1.17-.1.04 0 .07-.02.07-.04 0-.05.28-.21.36-.21.03 0 .05-.01.05-.03 0-.01.09-.07.2-.12s.23-.11.28-.13.08-.03.07-.01-.01.03.01.03.03-.02.03-.04c0-.06.51-.25.58-.22.04.01.05.01.02-.01s-.03-.03.04-.05c.04-.01.1-.01.12 0s.03.01.02-.01.1-.07.24-.11c.35-.11.42-.13.37-.09-.03.02-.01.03.07.03.06 0 .13-.03.15-.05.03-.04.03-.04-.01-.01-.03.02-.08.02-.11.01-.05-.02-.04-.03.06-.04.06-.01.13-.01.14 0 .02.01.03 0 .04-.01 0-.02.05-.04.1-.05.07-.02.08-.01.05.01-.04.03-.04.03.02.03.03 0 .08-.02.11-.03.04-.03.04-.03-.01-.02-.03.01-.06.01-.06-.01 0-.03.39-.1.51-.08.08.01.09.01.05-.02s-.03-.03.04-.03c.05 0 .08.02.08.03 0 .02.02.02.03.01q.03-.015.03.03c0 .03-.03.05-.09.05-.05 0-.12.01-.15.03s-.19.05-.35.08c-.44.08-.46.09-.48.24a.4.4 0 0 1-.09.2c-.06.06-.06.07-.02.07.03 0 .05.02.05.04 0 .04-.36.16-.41.13-.01-.01-.03 0-.04.02-.01.03-.03.03-.05-.01-.03-.04-.03-.04-.03.01 0 .04-.08.08-.26.14-.14.05-.28.08-.3.08s-.03.01-.02.03-.01.03-.05.02-.06-.01-.05.01c.02.03-.15.09-.24.09-.03 0-.06.01-.06.03s-.05.05-.11.08-.11.04-.11.02-.02-.02-.03-.01c-.02.01-.03.03-.02.04.02.03-.12.1-.19.1-.03 0-.08.03-.11.07-.05.05-.07.06-.09.03s-.03-.03-.03.02c0 .04-.02.05-.05.04s-.04-.01-.03.01c.02.03-.12.1-.21.1q-.075 0-.03.03c.03.02 0 .05-.11.1-.08.04-.22.12-.3.18s-.16.09-.18.08-.03-.01-.03.01c.01.02-.04.07-.11.11-.07.05-.11.07-.1.05.02-.03 0-.03-.04 0-.04.02-.08.05-.09.08-.02.03-.01.03.02.01s0 .01-.05.05-.1.08-.11.07-.03.02-.06.05-.06.06-.08.06-.01-.02.02-.04.05-.05.03-.06c-.03-.03-.08-.03-.06.01.01.02 0 .04-.02.05s-.03.03-.02.05c.02.03-.18.19-.24.19-.03 0-.07.03-.1.07-.06.07-.06.07.01.02.03-.03.02-.01-.03.04s-.1.08-.12.07-.03 0-.02.02-.01.04-.03.04-.04.02-.04.03c0 .04-.06.11-.1.11-.02 0-.02-.02-.01-.04s.01-.03-.02-.01c-.02.01-.03.03-.02.05.02.03-.19.24-.22.23-.01-.01-.01 0-.02.02-.01.05-.07.1-.1.08-.02-.01-.02-.01-.01.01.02.03-.21.27-.23.24-.01-.01-.03 0-.04.03s-.01.04.02.03c.02-.01 0 .02-.05.08-.05.05-.11.09-.13.08s-.03-.01-.01.01c.03.03-.04.11-.08.09-.02-.01-.02 0-.01.01.03.04-.09.2-.16.2-.04 0-.04.01-.01.02s.03.03-.01.08c-.03.03-.07.05-.08.04-.02-.01-.02 0-.01.02.01.03-.01.07-.05.12s-.13.15-.18.23c-.06.08-.11.14-.13.13-.01-.01-.02.01-.02.04s-.01.05-.03.05-.04.01-.05.04-.01.04.02.03c.02-.01.01.01-.02.05s-.07.08-.08.08c-.02 0-.05.01-.07.01q-.045 0 0 .03c.03.02.03.05-.02.13-.04.06-.08.11-.1.11s-.04.02-.05.05c-.01.04-.01.04.02 0 .02-.03.03-.03.03-.02 0 .02-.01.05-.03.06-.02.02-.07.12-.13.22s-.13.22-.15.25c-.04.06-.04.06-.03-.01.01-.04 0-.07-.01-.07-.02 0-.03.02-.03.04 0 .03-.01.07-.02.1s-.01.05.01.03c.02-.01.01.03-.02.09s-.06.1-.08.09c-.01-.01-.02.01-.01.03.01.03 0 .05-.03.05s-.06.02-.07.04c-.02.03-.01.03.03.02.05-.02.05-.01 0 .1-.03.06-.1.23-.16.38-.06.14-.13.28-.15.3s-.05.1-.06.18-.03.18-.05.22c-.03.06-.03.06-.02-.02.01-.05 0-.09-.03-.1q-.045-.015-.03.03c.01.03.01.05-.01.05s-.03-.03-.04-.06 0-.06.01-.06c.02 0 .03-.02.03-.05q0-.045-.03-.03c-.02.01-.03 0-.03-.02s-.02-.03-.03-.02c-.02.01-.03.05-.02.08s.01.06-.02.06c-.02 0-.03.02-.01.03.01.03.03.02.05-.01s.03-.03.03-.02-.02.05-.04.08c-.03.05-.03.07.01.09.03.02.03.03.02.03-.04 0-.13.22-.16.38-.01.06-.03.12-.05.12s-.02.02-.01.04c.01.03-.01.11-.03.18-.03.08-.05.16-.05.19 0 .06-.04.09-.08.06zm.83-2.79c0-.05-.01-.06-.02-.03s-.03.06-.05.07c-.02.02-.01.03.02.03s.05-.02.05-.07M7.72 7.7c.03-.03.04-.06.03-.06s-.05.03-.08.06-.04.06-.03.06.05-.03.08-.06m2.6-1.64c.03-.03.04-.05.03-.05-.02 0-.06.02-.09.05s-.04.05-.03.05c.02 0 .06-.02.09-.05M5.14 12.68c-.01-.04-.01-.07.01-.07.02-.01.03-.04.02-.08-.01-.05-.01-.06.02-.03s.03.07.01.14c-.03.09-.03.1-.06.05z"/><path d="M5.58 12.63c.02-.14.04-.17.09-.15.03.01.04.04.03.08-.02.05-.03.06-.05.02-.02-.03-.03-.02-.02.05.01.06 0 .08-.03.08s-.03-.03-.03-.08zM5.21 12.43c-.02-.06.01-.21.04-.21.01 0 .03-.05.05-.11.01-.06.03-.11.03-.1.03.03-.06.33-.09.33-.01 0-.02.03-.01.06.02.07 0 .09-.03.02z"/><path d="M5.65 12.46c-.02-.08-.02-.12.02-.12.03 0 .04-.02.04-.03 0-.02-.01-.02-.03-.01s-.02-.02-.01-.08c.03-.13.03-.14.08-.05.03.05.03.08 0 .08-.02 0-.03.04-.02.07s0 .06-.02.06-.03.02-.02.05 0 .05-.02.05-.03 0-.04-.01zM15.27 12.25c-.04-.07.28-.2.43-.18.08.02.09.04.07.13-.02.08-.09.11-.11.04-.01-.03-.04-.03-.12 0-.13.05-.24.05-.27.01M5.76 12.07c-.03-.03-.03-.07.01-.16.03-.07.05-.14.05-.16 0-.03.01-.03.04-.02.06.02.06.05-.01.24-.04.12-.06.14-.09.1M5.33 11.93c.01-.02.03-.07.03-.1.01-.03.03-.14.06-.24.04-.13.06-.17.1-.16.04.02.04.02-.01.05-.04.03-.05.03-.01.06.03.02.03.03.01.03s-.03.02-.02.04-.01.06-.03.09q-.045.045-.03.06c.02.03-.05.21-.09.21-.02 0-.02-.02 0-.04zM5.52 11.32c.01-.04.03-.07.05-.07s.02-.01.01-.03c-.03-.04.05-.22.08-.2.02.01.03 0 .01-.04-.02-.07.03-.15.07-.13.03.02-.06.31-.12.38-.02.02-.02.04-.01.05s.01.02-.01.01c-.01-.01-.04.01-.06.04-.04.05-.04.05-.02-.02zM5.74 10.82c-.02-.03.06-.11.08-.08s-.01.11-.04.11c-.02 0-.03-.01-.04-.03M5.78 10.67c0-.05.08-.17.11-.17.02 0 .03-.03.02-.06s.01-.1.03-.15c.05-.09.05-.09.05.01 0 .13-.08.33-.13.31-.03-.02-.03-.01-.02.03.01.03 0 .05-.03.05s-.05-.01-.05-.02zM15.38 10.38c0-.08.06-.1.26-.1.13 0 .15.01.14.05-.01.05-.05.07-.27.09-.12.01-.13.01-.13-.05zM15.44 4.37c0-.05.03-.06.25-.06.24 0 .25 0 .25.07 0 .06-.01.06-.03.02-.02-.03-.03-.03-.03-.01 0 .03-.05.04-.22.03-.18-.01-.22-.02-.22-.06zM14.44 4c0-.02.02-.02.03-.01.02.01.03.01.03-.01s-.03-.04-.05-.04c-.03-.01-.01-.01.05 0 .06 0 .09 0 .08-.02s.02-.03.08-.03c.05 0 .1.02.11.03.03.05.08.04.08-.01 0-.06.35-.08 1.13-.08.59 0 .62 0 .62.06s-.02.06-.22.07c-.13 0-.33.01-.46.02s-.29 0-.35-.02c-.07-.02-.12-.02-.12 0 0 .01-.07.03-.15.03s-.29.02-.46.03c-.39.04-.39.04-.39 0zm1.09-.13c0-.02-.04-.03-.1-.03-.05 0-.09.01-.08.03.01.01.05.02.1.02.04 0 .08-.01.08-.02"/></g><g fill="#135eaf"><path d="M15.3 17.65c-.43-.07-1.08-.28-1.08-.34 0-.02-.03-.02-.05-.01-.03.01-.05.01-.03-.01s-.17-.17-.22-.17c-.02 0-.04-.01-.05-.03s0-.02.03-.01.04.01.03-.03c-.01-.02.01-.07.04-.1.06-.06.06-.2.01-.2-.02 0-.04-.05-.06-.11s-.06-.13-.1-.14c-.05-.03-.05-.04-.02-.08.03-.03.07-.02.18.06.22.16.42.26.48.26.03 0 .17.03.29.08.13.04.25.08.28.08.04 0 .04.01-.01.05q-.075.06 0 .03c.03-.01.05 0 .05.01 0 .02-.06.03-.14.03-.13 0-.13 0-.15.12-.01.06-.02.13-.03.16-.02.06.35.18.62.21.13.01.22.03.22.04-.01.01.1.01.23.01.25-.01.29.01.19.08-.08.06-.52.06-.49.01.02-.03.01-.03-.02-.01s-.1.03-.2.01m-.88-.31c.01-.02 0-.02-.03-.01s-.05.01-.03-.02c.01-.02.01-.04-.01-.05-.02-.02-.03.03-.01.1.01.02.07 0 .08-.03zM16.47 17.03c0-.06.01-.07.1-.05.06.01.08.01.06-.01-.03-.02-.01-.03.06-.04.14-.03.22-.01.24.05.01.04-.03.06-.15.08-.24.05-.31.05-.31-.03M16.97 16.9c0-.02.06-.06.14-.09.14-.05.14-.05.14.04s-.01.09-.14.09c-.09 0-.14-.01-.14-.04M15.24 16.59c.02-.03.01-.03-.03-.02-.03.01-.09.01-.13 0-.06-.02-.07-.03-.03-.05.03-.02.02-.02-.03-.01-.08.02-.36-.07-.33-.11.01-.01-.08-.07-.19-.13-.14-.07-.19-.11-.16-.12.06-.01.07-.09.01-.19-.03-.06-.03-.09-.01-.14.02-.04.02-.07 0-.08s-.04-.08-.05-.17c-.01-.08-.03-.15-.05-.15-.05 0-.03-.08.02-.11.06-.02.06-.08 0-.08-.04 0-.09-.17-.06-.22s.03-.28 0-.28c-.01 0-.02-.05 0-.11.01-.08.01-.12-.02-.14s-.03-.05-.01-.14c.03-.09.02-.12-.02-.16s-.04-.05 0-.05.05-.03.06-.22c0-.08.02-.13.07-.16.04-.03.06-.07.04-.1-.02-.05-.03-.05-.07.01-.04.05-.04.05-.03-.07.01-.07.03-.14.05-.16s.02-.05.01-.07q-.015-.03.03-.03t.03-.03c-.01-.02 0-.03.02-.04.03-.01.03-.02 0-.07-.04-.04-.04-.05.01-.03.04.02.05 0 .05-.07 0-.06-.02-.09-.06-.1-.06-.02-.09-.07-.03-.07.02 0 .03-.03.04-.06q.015-.06-.03-.06c-.03 0-.03-.02-.03-.03.01-.02 0-.05-.02-.08s-.03-.05-.01-.05.04-.04.06-.09.02-.09.01-.08c-.02.01-.03-.02-.03-.05 0-.06.01-.06.05-.03s.05.03.05-.03c0-.03-.01-.07-.03-.07s-.04-.04-.07-.08c-.03-.07-.03-.08.01-.04.04.03.05.03.05-.02a.2.2 0 0 0-.03-.09c-.03-.03-.03-.04 0-.05.02-.01.03-.04.03-.07q0-.045-.03-.03c-.02.01-.03-.01-.03-.04s.02-.07.03-.08c.04-.03.03-.12-.02-.15-.02-.02-.02-.04.01-.06.02-.02.04-.09.04-.16q0-.12.06-.18c.07-.07.08-.11.03-.08-.02.01-.02 0-.01-.03s.06-.07.11-.1.08-.03.08-.02c-.01.02.02.02.07 0s.09-.05.08-.06c-.02-.03-.02-.03.15-.03.12-.01.12-.01.09.23-.02.13-.02.38-.02.57s-.01.33-.03.33c-.04 0-.04.12.01.13.02.01-.03.08-.11.16s-.14.16-.14.17.02 0 .05-.04q.09-.12 0 .09c-.05.13-.06.42-.02.54.02.05.02.08 0 .06q-.03-.015-.03.03c0 .03.02.04.05.03q.06-.03.03.03c-.01.03-.01.05.01.03.02-.01.04.01.06.04s.09.11.17.17.13.12.12.13 0 .01.03.01c.07-.01.59.17.59.21 0 .02.02.02.03.01q.03-.015.03.03c0 .04-.03.05-.17.03-.17-.02-.17-.02-.17.06 0 .04-.01.08-.03.08s-.03.06-.03.12c0 .07-.01.13-.03.14-.05.03-.04.26.02.31.04.04.05.09.03.19-.01.08 0 .14.01.14.02 0 .05.06.07.14.04.13.04.14 0 .14s-.04.01-.01.05q.045.06 0 .03c-.03-.01-.08-.02-.13-.03-.1-.02-.29-.19-.26-.23.01-.02-.02-.02-.06-.02-.05.01-.1-.01-.17-.1-.1-.13-.13-.19-.06-.15.02.01.01 0-.02-.03a.5.5 0 0 1-.1-.19c-.05-.14-.05-.14-.11-.09-.03.03-.04.06-.03.07s.02.07 0 .14c-.01.07-.01.17.01.23s.02.17.01.24c-.01.13-.01.13.1.17.06.02.13.03.16.03s.07.03.11.06c.03.03.05.03.04.02-.02-.03 0-.04.06-.04.1 0 .11.03.13.53.01.22.03.46.04.54.01.1.01.15-.02.15-.02 0-.03-.02-.01-.04zM4.88 16.08c0-.08.01-.12.01-.07.01.05.01.12 0 .16s-.01 0-.01-.09M16.19 15.52c0-.06.17-.13.18-.08.01.02.03.02.06.01q.06-.03.03.03c-.01.03-.02.06-.02.07s-.06.01-.13.01c-.09 0-.13-.01-.13-.05zM4.85 14.89c0-.1.01-.14.01-.08.01.06.01.14 0 .19s-.01 0-.01-.1zM4.95 13.72c0-.08.01-.11.01-.07.01.04.01.1 0 .14s-.01.01-.01-.07M16.03 13.25c-.05-.01-.08-.05-.08-.08s-.01-.07-.01-.08c-.02-.06-.03-.19-.01-.18.01.01.03-.08.03-.19 0-.19.01-.21.07-.22.07-.01.07 0 .07.3 0 .31 0 .31.08.33.07.02.11.11.05.11-.02 0-.05.01-.07.01-.02.01-.08 0-.12-.01z"/><path d="M15.47 13.06c0-.02-.02-.02-.04-.01-.03.01-.1-.03-.18-.11-.13-.13-.13-.13-.13-.35 0-.2.01-.22.1-.32.06-.06.13-.1.17-.1s.07-.01.06-.03c0-.02.03-.03.07-.03.08 0 .08 0 .06.22-.01.12-.03.34-.04.49s-.03.27-.05.27q-.03 0-.03-.03zM17.28 11.17c0-.09.05-.1.08-.03.01.03.04.04.07.03s.05 0 .05.01c0 .02-.01.03-.02.03-.02 0-.06.01-.09.02-.06.01-.07 0-.07-.07zM14.44 10.66c.04-.03.09-.06.11-.06s.01-.02-.02-.03c-.04-.03-.04-.04.01-.07.08-.06.06-.38-.02-.44-.04-.03-.05-.04-.02-.04q.27.015.24-.06c-.01-.03-.01-.05.03-.03.03.01.09.01.15-.01.07-.02.12-.02.15.01q.045.045.03 0c-.01-.02.01-.04.05-.06.04-.01.08 0 .1.03.01.03.05.05.07.05.03 0 .05.03.05.08 0 .04.02.08.03.08.02 0 .03.06.03.13s.02.13.03.13c.02 0 .03.02.03.04 0 .04-.25.11-.43.13-.04 0-.07.01-.07.03 0 .01-.02.02-.03.02-.02 0-.02-.02-.01-.04s0-.02-.02.01c-.06.07-.25.13-.28.09-.02-.03-.03-.03-.04 0q-.015.03 0 .03c.01 0 0 .02-.02.03a.25.25 0 0 1-.13.03c-.08 0-.08 0 0-.06zM13.08 4.76c-.09-.01-.09-.02-.03-.08.03-.03.04-.06.03-.06-.02 0 .01-.03.05-.08.04-.04.08-.1.08-.12s.02-.06.03-.09.01-.06-.01-.06q-.03 0-.03-.03c0-.02.02-.02.05-.01s.04.01.03-.02q-.015-.03 0-.03c.04.01.15-.04.17-.08.02-.03.03-.03.04 0s.05.03.13.01c.06-.02.15-.04.18-.05.04-.01.07-.03.06-.04s.07-.02.17-.02c.16 0 .19.01.27.08.07.07.08.11.07.22s-.03.14-.08.17-.06.04-.03.06c.02.01 0 .02-.06.01s-.09 0-.09.01c.02.03-.41.1-.46.08-.02-.01-.03-.01-.02.01.02.03-.4.15-.45.13-.01 0-.06-.01-.1-.02zM17.59 4.61c-.22-.04-.37-.08-.34-.09.04-.02.03-.02-.01-.02-.03 0-.05-.02-.03-.04.02-.03.46-.01.53.03.02.01.06.02.09.02.2.01.2.02.2.09 0 .04-.02.08-.03.08s-.19-.03-.41-.07"/></g><g fill="#0f66b7"><path d="M14.98 17.54c-.01-.01-.04-.02-.08-.02-.04-.01-.13-.03-.2-.05-.14-.04-.15-.07-.06-.26.07-.16.07-.18-.04-.22-.06-.02-.09-.06-.09-.09 0-.08.13-.09.29-.01.05.03.12.04.15.04s.05.01.04.03.03.03.08.03.11.01.12.02.02.13.02.28c0 .26 0 .26-.1.26-.06 0-.11 0-.12-.01zM16.94 17.53c.06-.02.06-.03.02-.03-.08 0-.03-.07.06-.07s.1.08.01.11c-.11.03-.18.02-.09-.01M17.32 17.36c0-.06.02-.08.09-.09.15-.03.18-.02.18.03q0 .045-.03.03c-.02-.01-.03-.01-.03.01s-.05.04-.1.06c-.09.03-.1.03-.11-.04M15.59 17.09c0-.06.02-.06.25-.06s.25.01.25.06c0 .06-.02.06-.25.06s-.25-.01-.25-.06M17.89 17.11c-.03-.09.01-.14.14-.16.21-.03.2.02-.04.16-.08.05-.09.05-.1 0M16.88 16.98c-.02-.01-.03-.03-.02-.04.01-.02.04-.02.07-.01s.04 0 .04-.03c-.01-.03.02-.04.09-.04s.1.01.1.05c0 .08-.16.12-.28.07M17.31 16.8c0-.06.12-.14.17-.12.04.01.05.01.02-.01q-.045-.03.03-.06c.06-.03.07-.03.08.05 0 .04-.02.1-.05.12-.05.04-.26.06-.26.03zM15.55 16.63c-.03-.03-.05-.04-.04-.02.02.03 0 .04-.06.04-.04 0-.08-.01-.07-.03s-.03-.02-.08-.01c-.07.01-.09 0-.08-.02q.015-.03-.03-.03t-.03-.03c.01-.02.01-.05 0-.07-.04-.06-.04-.13-.05-.55 0-.38 0-.38-.1-.43-.1-.04-.1-.04.02-.07.09-.02.13-.01.15.02.03.04.1.05.51.06.1 0 .12.01.12.08 0 .05.02.08.05.08q.045 0 .03-.03c-.01-.01.02-.04.06-.06.08-.03.08-.03.07.05-.01.07-.03.08-.11.08-.06 0-.1.02-.1.03 0 .02-.02.05-.04.07-.03.03-.04.13-.03.35.01.35-.01.51-.08.49-.03-.01-.05 0-.05.02-.01.02-.04.01-.07-.03zM15.48 15.22c-.01-.03-.03-.07-.03-.09 0-.03-.03-.05-.05-.07-.03-.02-.03-.08-.02-.17.01-.11.01-.14-.03-.14q-.045 0-.03-.03c.01-.02 0-.04-.01-.05-.02-.01-.03-.07-.02-.13 0-.06-.01-.11-.03-.11s-.02-.01.01-.03.03-.05.03-.08c-.01-.03 0-.07.03-.08.04-.03.04-.12 0-.19-.01-.02.01-.05.05-.07.06-.04.09-.12.04-.12-.01 0-.03-.03-.03-.08-.01-.08-.01-.08.14-.03.08.03.17.05.19.06.03.01.08.02.13.03.13.01.14.01.15.09 0 .04-.03.11-.07.16s-.08.11-.08.14-.02.08-.04.12c-.03.05-.03.09 0 .2.04.15.05.51.02.63-.02.06-.04.07-.17.06-.1 0-.16-.02-.17-.05zM16.27 13.29c-.01-.02-.08-.04-.14-.05-.13-.02-.13-.02-.13-.33 0-.17-.01-.32-.03-.33s-.03-.03-.02-.05.02-.13.02-.25c0-.22 0-.22.11-.22.06 0 .11.01.11.03s.02.02.04.01c.09-.03.12.15.1.68-.01.28-.03.51-.03.52-.01.01-.02 0-.03-.02zM15.59 13.13a.3.3 0 0 1-.14-.08 1 1 0 0 0-.12-.1c-.05-.03-.05-.04-.01-.03.08.02.13-.08.12-.22a.3.3 0 0 1 .01-.15c.01-.02.03-.12.04-.22.02-.19.06-.25.13-.19.03.02.04.02.04 0s.02-.03.04-.03c.06 0 .12.43.07.51-.02.03-.02.07.01.1.05.06.08.43.03.43-.02 0-.03-.03-.03-.05 0-.04-.01-.04-.03.02-.03.08-.04.08-.16.04zM15.14 12.74a1 1 0 0 1-.02-.17c0-.08.01-.08.05.05.03.08.03.15.02.17-.02.02-.03-.01-.05-.05M16.98 12.57c-.02-.26-.04-.48-.06-.51s.01-.03.07-.03c.09.01.09.01.1.3.01.26 0 .29-.05.29-.03 0-.06-.03-.06-.05M14.86 12.27c.01-.03 0-.04-.02-.04s-.05-.02-.07-.05c-.03-.04-.02-.07.06-.14.09-.08.1-.1.07-.21-.01-.07-.03-.13-.04-.13-.01-.01-.01-.05.01-.09s.02-.08 0-.09-.02-.04-.01-.06 0-.01-.03.02c-.04.05-.08.04-.07-.03 0-.04.1-.28.17-.4.03-.05.03-.09.02-.09-.05 0 .15-.09.23-.11.04-.01.09-.02.1-.03.13-.08.87-.11 1.19-.05.23.04.56.16.54.19-.01.01.01.02.04.02.09-.01.25.07.3.15s.05.08-.05.08c-.11 0-.34-.11-.34-.16 0-.02-.03-.03-.06-.03-.07 0-.35-.07-.38-.09-.01-.01-.05-.02-.09-.02s-.18-.01-.3-.03c-.22-.03-.22-.03-.27.07-.03.06-.05.18-.05.33 0 .14-.01.23-.03.23s-.02.02-.01.04c.04.07.04.19 0 .25-.05.07-.21.11-.24.05-.02-.03-.03-.03-.03.01 0 .03-.06.07-.15.11-.08.03-.2.11-.27.17-.15.13-.26.18-.22.11zm.07-.96c.01-.02.01-.05-.01-.07s-.03-.01-.05.03c-.02.07.02.09.06.03zM19.47 12.23c0-.05.01-.07.02-.05.02.06.07.04.05-.02-.02-.05-.01-.05.01-.01.02.03.03.06.02.07s0 .03.02.03.03.02.03.03c0 .02-.03.03-.08.03-.07 0-.08-.02-.08-.08zM17.86 11.68c-.07-.08-.13-.17-.13-.2 0-.09.02-.09.08-.02.03.03.03.03.02.01-.02-.03 0-.03.05.02.12.1.18.18.16.22-.01.02-.01.02.01.01.02-.02.11.04.11.08 0 .01-.04.02-.09.02-.06 0-.13-.04-.21-.13zM15.32 10.39c-.01-.03-.02-.08-.03-.13 0-.04-.02-.08-.04-.09-.03-.01-.03-.04-.02-.08s.01-.06-.03-.06c-.03 0-.07-.03-.09-.08-.05-.08-.05-.08.09-.11.08-.02.3-.04.49-.06.35-.02.35-.02.43.14.06.12.08.2.08.33 0 .1-.01.17-.03.17s-.02-.02-.01-.04c.02-.02.01-.03-.03-.02-.03.01-.07 0-.09-.02-.03-.03-.03-.03-.02 0 .02.03-.05.03-.26.02-.17-.01-.29 0-.3.02-.03.05-.14.04-.16-.02zM14.12 4.54c-.01-.01.02-.07.07-.12s.09-.11.09-.13c0-.06-.17-.2-.24-.2-.03 0-.08-.01-.1-.03-.05-.03.09-.06.36-.08.1 0 .2-.02.21-.03.03-.03.35-.05.47-.03.08.02.08.03.08.14 0 .07.02.12.03.12.02 0 .03.03.03.06 0 .08.04.1.19.1.14 0 .17.07.04.1-.14.03-.82.07-.99.06-.12-.01-.14 0-.09.02.05.03.05.03-.03.03-.05 0-.11-.01-.12-.02zM16.99 3.98c-.03-.01-.05-.03-.04-.04.01-.02 0-.03-.01-.03-.02 0-.03.02-.03.03 0 .02-.1.03-.27.03-.2 0-.27-.02-.27-.05 0-.08.14-.1.43-.07.15.02.3.03.34.03.05 0 .05.01.02.03s-.03.03-.01.03.04.02.04.03c0 .03-.09.04-.2.01"/></g><g fill="#0a6fc0"><path d="M15.5 17.64c-.24-.04-.28-.05-.26-.08.01-.02-.01-.02-.05.01-.06.03-.07.03-.09 0q-.03-.03-.06-.03c-.02.01-.05.01-.07-.01q-.045-.03.06-.06c.1-.04.1-.04.08-.23-.01-.11-.03-.2-.05-.21q-.03-.015-.03-.03c0-.03.32-.03.38.01.03.02.23.03.46.03.42 0 .42 0 .4.1-.01.05-.03.17-.04.27s-.03.18-.06.21c-.07.05-.46.04-.52-.02-.03-.03-.06-.03-.07-.02s0 .02.02.02.04.01.04.03c0 .03-.03.03-.13.02zM17.55 16.67c-.04-.04-.02-.08.03-.06.03.01.04.01.03-.01-.02-.04.16-.14.21-.11.02.01.03.01.02-.01s0-.05.02-.07c.03-.03.04-.01.05.07.01.09-.01.12-.08.16-.1.05-.23.06-.26.03zM15.62 16.63c-.05-.01-.05-.02-.01-.1.03-.07.04-.16.03-.42-.02-.28-.01-.34.03-.39.03-.03.04-.08.03-.12-.02-.09.07-.09.09-.01q.015.06.09.06c.04 0 .07-.02.06-.03s.02-.05.05-.09a.15.15 0 0 1 .15-.06c.05.01.08 0 .07-.01s0-.03.02-.03.04.02.05.03c.01.03.03.02.05-.01s.03.02.03.13c0 .26-.03.36-.11.39-.04.01-.05.03-.03.04.07.03.03.38-.04.38-.03 0-.04.03-.04.06s.02.06.03.06c.02 0 .03.03.03.06 0 .05-.03.05-.28.06-.15 0-.3 0-.32-.01zM15.71 15.3a.27.27 0 0 1 .01-.15c.03-.13.04-.4 0-.4s-.05-.46-.01-.48c.02-.01.03-.05.03-.09s.04-.11.08-.16c.08-.08.08-.08.01-.11-.14-.05.03-.07.21-.03.48.13.77.38.72.62-.03.13-.08.11-.15-.04-.06-.13-.06-.13-.08.08-.01.12-.02.23-.01.25.01.01.01.11-.01.21-.02.17-.03.19-.13.23-.06.03-.12.04-.14.03s-.03-.01-.03.01-.05.04-.11.04c-.1.01-.11.01-.13-.08-.01-.05-.03-.08-.04-.06-.03.05-.16.1-.2.08-.03-.02-.02-.01.01.03.02.03.03.05.01.05s-.04-.02-.05-.04zM19.06 14.78c0-.02.02-.02.04-.01.02.02.03.01.02-.03-.01-.03 0-.13.03-.23.04-.18.08-.42.09-.64 0-.09.02-.12.06-.12.09 0 .07.54-.05.97-.01.03-.02.06-.02.07 0 .03-.16.03-.16-.01zM17.12 13.98c.01-.03.01-.04-.01-.03-.03.03-.17-.2-.15-.24.01-.02.01-.02-.01-.01-.04.03-.14-.07-.12-.13.01-.04.01-.04-.01-.02-.02.03-.05.02-.12-.03-.05-.03-.16-.1-.25-.14-.22-.11-.32-.17-.28-.17.02 0 .03-.07.03-.18 0-.1.01-.31.02-.46.02-.28.02-.28-.1-.38-.11-.1-.11-.1.04-.09.08 0 .18.02.22.03.12.05.27.18.25.22-.01.03 0 .04.02.03.08-.02.11.13.06.31-.06.25-.03.62.07.67.08.04.27.23.34.34.07.1.07.26.01.28q-.045.015-.03-.03zM19.75 13.41c0-.18.01-.22.05-.22.03 0 .04.02.03.03-.01.02 0 .03.01.03.02 0 .03.08.03.19 0 .17-.01.19-.06.19-.06 0-.06-.02-.06-.22M19.14 12.84c.01-.02 0-.03-.02-.03q-.045 0 0-.03c.03-.02.03-.03 0-.04s-.01-.02.03-.02c.05 0 .07.02.07.08 0 .05-.02.08-.05.08q-.045 0-.03-.03zM16.67 12.01c-.11-.03-.19-.06-.18-.07s-.03-.01-.08-.01c-.07.01-.1 0-.11-.04-.01-.03-.03-.04-.04-.02s-.06.02-.13.01c-.06-.01-.09-.03-.07-.03.03 0 .03-.01.03-.02-.01-.01-.04 0-.07.02-.04.04-.05.02-.04-.16.01-.22.01-.22-.16-.17-.05.02-.06.03-.04.06s.02.05-.01.08-.05.02-.06-.08c-.03-.15-.03-.14 0-.4.01-.12.04-.26.07-.31.05-.09.05-.09.35-.08.43.02.41.01.39.3-.03.37 0 .72.07.74.02.01.1.03.18.05s.15.06.15.08c0 .03-.02.04-.04.04-.03 0-.03.01.01.03.06.04.02.03-.21-.02zM17.37 11.31c-.03-.11-.02-.14.04-.13.04 0 .08.02.08.04.01.02.03.03.04.02.02-.01.03.01.03.03 0 .03-.03.05-.09.05-.05 0-.09 0-.1-.01M16.48 10.44c.01-.02-.06-.02-.16-.01-.12.01-.17 0-.15-.02.01-.02 0-.04-.03-.05-.04-.01-.04-.04-.03-.1.02-.06 0-.12-.06-.22-.04-.08-.08-.16-.08-.18 0-.03-.04-.05-.08-.06-.05-.01.04-.01.19 0 .16.01.31.01.35.01.05 0 .07.03.09.12.03.19.02.54-.02.54-.02 0-.03-.01-.02-.03M19.5 5.13c-.08-.03-.12-.06-.1-.06s.04-.02.04-.04-.01-.02-.03-.01-.03 0-.03-.01c0-.02.04-.03.09-.03s.09.02.09.03c0 .02.01.03.03.01.04-.03.19.05.19.1 0 .02-.01.04-.03.04s-.05.01-.07.01c-.02.01-.1-.01-.18-.04M16.52 4.48c-.26-.02-.5-.04-.54-.04s-.07-.02-.07-.03c0-.03-.31-.01-.43.02-.1.03-.2-.01-.17-.06.01-.02 0-.01-.03.02s-.07.05-.09.05c-.07 0-.27-.09-.2-.09.06 0 .08-.06.02-.06-.02 0-.03-.06-.03-.13 0-.11-.01-.13-.09-.14a.5.5 0 0 1-.14-.06c-.06-.04-.06-.04.03-.04.05 0 .13-.01.17-.02.06-.02.07-.02.05.02s-.02.04.03 0c.03-.03.12-.04.28-.03.13.01.24 0 .24-.01 0-.03.6-.01.98.03 1.03.1.95.08.95.21 0 .11 0 .11-.22.11-.25 0-.32.02-.32.09 0 .04.04.06.17.08.18.02.23.08.1.12-.09.02-.1.02-.7-.03z"/></g><g fill="#087bca"><path d="M16 17.58c.02-.03.05-.07.08-.08s.04-.04.03-.08c-.01-.06 0-.12.05-.33.01-.05.2-.09.44-.1.08 0 .15-.02.15-.03s.02-.02.04-.03c.02 0 .08-.01.14-.02.1-.02.1-.02.1.28s0 .3-.09.3h-.12c-.02 0-.03.03-.05.07-.02.05-.04.06-.1.05-.04-.01-.09 0-.1.01-.01.02-.07.03-.13.03s-.1-.01-.09-.03 0-.04-.02-.05c-.03-.01-.03-.01-.02.01.02.03 0 .04-.05.04-.31.02-.3.02-.27-.04zM17.48 16.7c.03-.01.05-.03.05-.06 0-.02.02-.05.05-.06s.04-.01.03.02c-.02.03-.01.02.03-.01.05-.04.05-.03.05.04 0 .08-.01.08-.13.08-.08 0-.11-.01-.08-.02zM16.13 16.63c-.06-.01-.07-.03-.07-.17 0-.13.01-.15.06-.15s.05-.01.01-.03c-.04-.03-.04-.04.01-.08.06-.04.08-.1.02-.07-.04.03-.04-.19 0-.27.03-.05.04-.06.06-.02.02.03.03.03.03-.02 0-.03.01-.11.01-.17s0-.13-.02-.16c-.03-.07.01-.08.06-.02.03.03.04.03.04 0 0-.02.04-.03.09-.03.07 0 .09-.01.08-.04-.01-.06.1-.14.14-.11.02.01.03 0 .03-.02-.01-.03.01-.04.05-.03.03.01.05-.01.05-.03-.01-.02.01-.04.03-.03.02 0 .03 0 .03-.02-.01-.04.08-.17.13-.17.1 0 .13.37.05.73-.03.12-.05.28-.05.34 0 .07-.01.2-.02.29-.02.16-.02.16-.15.19-.07.02-.18.03-.24.02-.09-.01-.1-.01-.03.02.07.02.06.03-.08.05-.12.02-.16.01-.18-.02q-.03-.045-.03 0c0 .02-.01.03-.02.03-.02 0-.06-.01-.09-.02zM16.34 15.16c.04-.04.06-.09.04-.14-.01-.04 0-.08.01-.09.02-.01.02-.07 0-.14-.02-.08-.02-.15 0-.19.02-.03.03-.16.02-.3-.01-.22-.01-.23.04-.19.03.03.08.07.12.1.12.09.16.21.17.44.01.19 0 .23-.07.33-.08.12-.18.19-.15.1q.015-.045 0-.06c-.01-.01-.03.02-.03.07-.01.09-.05.13-.15.13-.07 0-.07 0-.01-.06zM19.59 14.88c0-.13.1-.57.13-.57.02 0 .04.03.05.06.02.04.03.04.05-.03.04-.13-.01.19-.06.38-.03.09-.06.18-.08.18-.02.01-.02.03-.01.04.01.02-.01.03-.03.03-.03 0-.05-.03-.05-.08zM17.03 13.82c-.13-.2-.18-.26-.32-.35-.06-.04-.11-.08-.1-.1s0-.13-.01-.27c-.02-.13-.02-.28 0-.32.02-.06.01-.12-.03-.2a1 1 0 0 1-.07-.22c-.02-.12-.02-.12.06-.07.07.05.26.38.24.43 0 .01.01.02.02.02.02 0 .03.02.03.04s.01.08.03.13c.03.09.03.09.08-.04.05-.11.05-.14.02-.18-.02-.03-.03-.04-.01-.03.04.02.06-.43.03-.52-.02-.06-.21-.15-.41-.2-.12-.03-.13-.05-.13-.13a1 1 0 0 0-.05-.25c-.03-.1-.04-.2-.03-.25.02-.08.04-.25.06-.43q0-.075.06-.06c.03.01.17.04.31.08.14.03.25.06.23.06s.02.03.08.06c.1.05.11.07.11.19.01.17.13.69.17.69.02 0 .03.11.03.23 0 .13.02.26.04.29.03.05.03.14-.02.42-.03.2-.06.49-.08.66-.01.17-.03.3-.04.3s-.04.03-.06.08c-.05.12-.12.1-.22-.07zM18.22 11.32c-.04-.03-.14-.1-.22-.16s-.21-.16-.29-.21c-.08-.06-.16-.12-.16-.14s-.03-.04-.08-.04c-.04 0-.15-.03-.23-.07a3.5 3.5 0 0 0-.65-.21c-.07-.01-.11-.03-.1-.05s0-.03-.02-.03-.03-.07-.03-.17-.02-.19-.05-.23c-.04-.06-.04-.08-.01-.13.04-.06.13-.08.16-.03.01.02.08.02.16.01.12-.01.14-.01.14.04 0 .03.02.05.03.05.02 0 .02-.01.01-.03q-.015-.03 0-.03c.05 0 .26.08.26.09s.03.02.08.02c.08.01.48.18.52.22.01.01.06.04.11.06s.09.05.09.07c-.01.02.01.03.04.02.04-.02.04-.01.03.02-.02.03-.01.03.01.02.03-.02.32.16.32.21 0 .01.02.03.05.03s.05.02.05.03c0 .02-.01.02-.03.01s-.03 0-.03.01c0 .07-.13.03-.29-.09-.17-.13-.21-.12-.15.03.02.05.03.13.03.18-.01.08.01.11.15.22.18.14.21.18.19.28-.01.06-.02.06-.09.01zM19.94 5.28c0-.02-.01-.03-.02-.02s-.06 0-.11-.02c-.07-.03-.08-.04-.05-.06s.03-.03-.02-.03-.05-.01-.03-.04c.03-.03.07-.03.15-.01.1.03.12.04.12.12 0 .05-.01.08-.02.08-.02 0-.03-.02-.03-.04zM18.79 4.86c-.02-.03-.06-.05-.08-.05-.03 0-.02.01.01.03.03.03.03.03-.03.01-.04-.01-.19-.05-.33-.09s-.25-.08-.24-.09-.01-.01-.04 0-.1-.01-.14-.03a.35.35 0 0 0-.18-.05c-.06-.01-.14-.02-.17-.04a.7.7 0 0 0-.25-.04c-.28-.01-.99-.09-.86-.1.06 0 .17-.03.24-.05.1-.04.13-.07.13-.12 0-.09.05-.11.32-.11.2 0 .21-.01.1-.03a5 5 0 0 0-.81-.09c-.18 0-.53-.08-.5-.13a1 1 0 0 1 .29-.01c.15.01.39.01.53.01.15 0 .25.02.24.03-.03.04.06.03.11-.01.03-.03.04-.03.02 0-.01.02-.01.04.01.04s.03.02.03.05.03.04.13.03c.25-.03 1.17.16 1.37.29.11.07.12.08.13.27.02.2.02.34.01.34 0 0-.03-.02-.05-.05z"/></g><g fill="#078cd8"><path d="M8.47 20.05c0-1.23 0-1.23 7.56-1.23s7.56 0 7.56 1.23 0 1.23-7.56 1.23-7.56 0-7.56-1.23M16.95 17.51c-.08-.02-.09-.06-.04-.09.03-.02.03-.03 0-.04-.03-.02-.03-.05 0-.13.05-.16.04-.24-.03-.26-.06-.02-.06-.03-.03-.05s.05-.03.07-.02c.03.02.25-.08.23-.11-.01-.02.03-.04.08-.05.16-.03.31-.09.31-.12 0-.01.02-.03.05-.03s.04-.02.03-.03c-.01-.02-.01-.03.01-.03.04.02.23-.08.21-.1-.02-.03.11-.13.17-.13.08 0 .08.53-.01.7-.03.06-.07.12-.08.12s-.01-.02 0-.04-.01-.01-.04.03c-.04.05-.08.07-.1.05-.03-.02-.03-.01-.02.01.03.04-.17.13-.27.11q-.09-.015-.09.03c0 .04-.31.18-.37.17-.01 0-.05-.01-.09-.02zM16.76 16.44c0-.06.01-.09.04-.09s.04-.02.03-.04c-.01-.03 0-.05.02-.07.02-.01.03-.03.03-.05s-.01-.02-.03-.01-.03-.01-.03-.05.01-.06.03-.04c.03.02.03 0 0-.04-.05-.09-.04-.2 0-.17.03.02.03.01.02-.03-.01-.03-.01-.05.01-.05s.02-.03.01-.08c-.02-.06-.01-.08.02-.06s.03.01 0-.04-.03-.07 0-.08c.06-.02.06-.18.01-.18-.04 0-.04-.01 0-.06s.05-.07.01-.14-.04-.09 0-.15.05-.06.08-.03.03.03.02-.01c-.01-.03.02-.14.06-.25.07-.16.08-.23.07-.4-.01-.11-.03-.23-.04-.27-.02-.04-.02-.05.01-.04.03.02.02-.01-.01-.08-.03-.06-.04-.09-.02-.08s.05-.01.07-.06c.02-.04.04-.08.06-.08.01 0 .02-.08.02-.18s.01-.2.03-.22c.02-.03.02-.05-.01-.07-.04-.03-.04-.04 0-.16.02-.04.03-.11.04-.14s.03-.14.04-.23c.03-.13.02-.18-.01-.23q-.045-.06-.03-.27c.01-.13 0-.22-.02-.22s-.04-.05-.05-.11-.03-.11-.04-.11c-.02 0-.03-.06-.03-.13a.34.34 0 0 0-.07-.22c-.06-.08-.06-.1-.03-.17.02-.04.03-.09.02-.1-.01-.02 0-.04.01-.05.02-.02.02-.04-.02-.07-.05-.04-.05-.04.01-.02.16.06.36.17.34.19-.01.01.02.02.07.01.07-.01.14.05.36.27.15.15.28.3.28.32 0 .03.02.05.05.05.08 0 .14.2.15.52 0 .17-.01.32-.03.35s-.03.12-.04.2c0 .09-.02.28-.04.42-.05.38-.09.83-.13 1.34-.02.25-.05.56-.08.7-.03.13-.05.3-.05.36 0 .13-.12.28-.19.24-.02-.02-.03-.01-.02.01s-.02.06-.07.1c-.1.08-.14.08-.11.03.01-.03.01-.03-.01-.02q-.03.03-.03.06c0 .02-.08.08-.18.13-.16.08-.19.08-.23.05-.05-.04-.05-.04-.02.01s.02.06-.09.1c-.2.08-.27.07-.28-.04zM19.14 12.78c.01-.02 0-.03-.03-.05-.03-.01-.05-.03-.05-.06 0-.02-.06-.17-.13-.32s-.12-.29-.11-.31 0-.02-.01-.02c-.04.01-.35-.43-.32-.46.01-.01.01-.02-.01-.01-.02 0-.1-.07-.18-.17-.14-.17-.52-.49-.58-.49q-.03 0-.03-.03c0-.02.03-.02.06-.02.03.01.07-.01.09-.05q.045-.06 0-.06c-.02 0-.03-.01-.01-.03.01-.02 0-.04-.02-.05s-.02-.05-.01-.1c.01-.04.01-.08-.02-.08-.06 0-.04-.09.03-.11.03-.01.06-.03.05-.05-.03-.04 0-.03.12.04.06.04.1.08.09.09-.01.02 0 .02.03.01.02-.01.08.02.13.06s.12.08.14.08c.05 0 .27.2.27.24 0 .01.01.02.03.01.03-.01.11.05.11.09 0 .02-.02.02-.04.01-.02-.02-.03-.01-.01.02.02.02.03.03.04.02.03-.03.1.05.08.08-.01.02 0 .02.01.01.02-.01.08.04.14.11.16.19.32.44.28.41-.03-.02-.04-.01-.02.03.01.03 0 .05-.02.05-.03 0-.05.07-.06.22-.01.12-.03.25-.05.29-.02.06-.02.12.03.24.08.2.08.35.01.35q-.045 0-.03-.03zM17.62 10.23c-.05-.03-.08-.05-.08-.06.02-.02.17.04.19.08.03.04-.01.04-.12-.02zM21.05 5.86c-.15-.09-.4-.22-.55-.3s-.26-.15-.25-.16c.01-.02 0-.02-.01-.01-.04.03-.25-.06-.31-.12a.14.14 0 0 0-.09-.04c-.03 0-.04-.01-.04-.03s-.02-.03-.05-.03q-.045 0-.03-.03c.01-.02 0-.02-.03-.01-.05.02-.23-.04-.23-.08 0-.02-.05-.02-.1-.02-.12.01-.52-.11-.52-.15 0-.01.02-.02.04 0 .02.01.03.01.01-.02-.01-.02-.03-.03-.05-.02-.01.01-.11-.01-.21-.04-.18-.06-.18-.06-.04-.06.08 0 .15-.01.16-.02s.01-.07 0-.13c-.01-.09-.04-.13-.13-.18-.17-.1-.61-.21-1.24-.3-.32-.04-.35-.06-.27-.15.05-.07.07-.07.23-.05.1.01.17.03.16.05-.03.04.08.06.35.06.15 0 .26.01.26.03s.02.02.04.01c.03-.01.18.01.35.05.22.05.29.08.24.09-.05.02-.04.03.05.05.06.01.13.02.16.02s.08-.01.12 0c.07 0 .07.01.03.06s-.04.05.03.01c.05-.03.08-.03.09-.01s.04.03.07.02.06 0 .06.02.02.03.05.02.05 0 .05.04c0 .05.03.07.1.08.09.02.09.01.04-.03-.06-.04-.06-.04 0-.03.03.01.07.02.09.02s.03.01.02.03 0 .03.02.03c.12 0 .15.01.15.09 0 .05.02.09.06.1.03.01.06.03.06.05s.01.03.02.01c.01-.01.07 0 .13.03.1.04.11.04.11-.02 0-.05.01-.06.04-.03q.045.045.06 0c.01-.03.02-.03.02 0 0 .02.03.04.05.04.08 0 .05.09-.02.1-.06.01-.05.02.06.07.13.06.13.06.13.21 0 .08-.01.16-.03.17-.05.03-.03.07.08.13.06.03.11.07.11.09s.01.02.02.01c.02-.02.25.09.32.15.02.03.06.04.08.04s.08.03.13.07c.07.05.09.09.08.15-.01.08-.01.08-.29-.08z"/></g><g fill="#0698e0"><path d="M17.77 17.2c-.01-.01 0-.05.03-.08s.04-.06.03-.06.01-.03.04-.06c.06-.05.07-.09.08-.3.01-.18-.01-.25-.04-.28-.04-.04-.04-.04.01-.03.03.01.05.01.04-.01-.02-.03.17-.17.22-.16.02.01.03 0 .01-.01-.03-.03.13-.2.19-.2q.045 0 .03-.03c-.01-.02.03-.09.09-.17.17-.19.32-.44.45-.73.07-.14.13-.23.13-.2.01.03.01 0 0-.05s-.01-.08.01-.07c.06.04.15-.45.15-.82 0-.48-.03-.87-.05-.85-.02.01-.03-.03-.03-.08s-.01-.12-.01-.17c-.01-.13-.05-.25-.17-.52s-.13-.33-.03-.16c.05.08.06.08.08.04.01-.03.01-.07 0-.08-.01-.02 0-.03.01-.03.02 0 .03-.03.03-.05 0-.03.01-.09.02-.14s0-.09-.02-.09-.03-.01-.02-.02.01-.07-.01-.12a1 1 0 0 1-.04-.24c-.01-.07-.03-.14-.06-.16-.06-.03-.18-.24-.14-.24.01 0 .06.05.09.11.04.06.08.11.1.11s.03.02.03.04.03.06.07.08c.04.03.06.06.05.08-.01.03 0 .04.02.04s.06.05.1.13c.04.07.08.13.1.13.05 0 .11.11.08.14-.01.01-.01.02.01.02.04 0 .08.14.08.24 0 .04.02.07.05.08.11.03.29.77.28 1.11 0 .11 0 .19.02.19.01 0 .02.15.02.33 0 .25-.01.34-.05.38-.03.03-.05.12-.06.2-.01.17-.04.34-.08.39-.01.02-.02.06-.02.09-.01.16-.01.17-.05.15-.02-.01-.03-.01-.01.02.03.05-.14.44-.18.42-.02-.01-.02 0-.01.02.03.04-.25.49-.29.48-.02-.01-.03.01-.02.03s-.04.1-.11.18-.11.11-.09.08c.04-.06.04-.06-.01-.02-.03.02-.05.05-.04.07.02.04-.39.44-.43.42-.02-.01-.03-.01-.01.01.02.04-.1.12-.15.1-.02 0-.02 0-.01.02.03.03-.13.13-.2.12-.03-.01-.06 0-.06.01 0 .02-.02.06-.05.09s-.04.04-.03.01-.01-.02-.03.03c-.05.07-.08.08-.12.05z"/><path d="M17.78 15.95c-.02-.08.03-.18.07-.15.01.01.02-.05.02-.12s.02-.2.04-.29c.02-.08.03-.24.04-.34 0-.1.01-.19.03-.19.02-.01.03-.31.03-.66 0-.06.01-.1.03-.1.03 0 .02-.1-.02-.16-.01-.02 0-.05.02-.08a.25.25 0 0 0 .03-.13c-.01-.04 0-.09.01-.1.02-.01.02-.05.01-.09s-.01-.08 0-.08c.02 0 .03-.08.03-.19 0-.1.02-.21.03-.24.02-.03.02-.1.01-.15a.3.3 0 0 1 .01-.17c.05-.13.06-.17.05-.35-.01-.24-.04-.35-.12-.39a.12.12 0 0 1-.07-.11c0-.04-.01-.1-.01-.13-.01-.05 0-.05.06-.02.11.06.18.13.18.19 0 .03.02.07.04.08s.03.01.01-.01c-.01-.02-.02-.04-.01-.04.04 0 .18.25.16.28-.01.02 0 .03.02.03.02-.01.04.02.04.04 0 .03.01.05.02.04.03-.02.08.1.07.15 0 .01.01.02.02.02.04 0 .23.59.21.67-.01.07-.01.07-.02 0 0-.04-.02-.07-.04-.07s-.03.02-.02.05.02.06.02.08.02.03.05.03c.04 0 .05.03.04.13-.01.07 0 .13.01.14.08.05 0 .75-.13 1.13-.1.3-.3.7-.34.68-.02-.01-.04 0-.05.02-.01.03-.01.03.01.02.05-.03.05 0-.02.09-.04.06-.06.07-.08.04s-.03-.03-.01.02c.02.06-.16.28-.2.25-.02-.01-.03 0-.02.03.01.02-.01.04-.04.03s-.04 0-.02.01c.03.03-.07.14-.14.14-.03 0-.06-.01-.06-.02zM23.77 8.13c-.03-.03-.04-.08-.03-.11s0-.05-.02-.05-.03.02-.01.04c.02.03.01.03-.03-.01-.03-.02-.04-.05-.03-.07s0-.03-.03-.02a.022.022 0 0 1-.03-.03q0-.03-.03-.03c-.02.01-.04-.02-.04-.05s-.02-.06-.05-.06-.04-.02-.04-.05c.01-.03 0-.04-.01-.02-.03.03-.23-.17-.21-.21.01-.02 0-.02-.01-.01-.04.03-.14-.08-.11-.12.02-.01 0-.02-.02-.01-.03.01-.04-.01-.04-.04.01-.03 0-.04-.01-.03-.03.03-.14-.03-.14-.07 0-.02.02-.02.04-.01s.03.01.01-.01q-.03-.03-.06-.03t-.03-.03c0-.05-.06-.11-.1-.11-.02 0-.01.02.03.05.03.03.05.05.03.05-.05 0-.27-.2-.25-.22.01-.02.01-.02-.01-.02-.05.02-.35-.23-.33-.27.01-.02.01-.02-.01-.01-.03.02-.47-.28-.46-.32 0-.02-.02-.03-.04-.02-.03 0-.06-.02-.06-.03-.01-.03.03-.04.11-.04.09 0 .16.03.26.11.08.06.28.22.47.37.18.14.52.46.77.7.6.6.64.65.64.77 0 .11-.03.12-.1.03zM22.81 6.28c0-.02.02-.03.03-.03.02 0 .03-.02.01-.05-.02-.04 0-.04.04.01.08.09.08.1-.01.1-.04 0-.08-.01-.08-.03zM20.27 5.4c-.05-.02-.09-.04-.09-.06s-.02-.03-.04-.02c-.03.01-.06 0-.08-.03-.03-.04-.01-.04.15-.04.28 0 .36-.13.14-.22-.06-.03-.17-.09-.25-.13a1.5 1.5 0 0 0-.23-.1.17.17 0 0 1-.13-.1c-.03-.07-.18-.13-.31-.13-.08 0-.28-.09-.28-.13 0-.02.02-.03.05-.03s.05-.01.05-.03.05-.02.1-.02c.15.01.15.01.13.05-.03.05.09.09.29.09.05 0 .12.02.14.04s.06.04.08.04c.09.01.1.02.08.05-.02.02-.01.03.03.02.03-.01.06 0 .07.03s.03.04.04.04c.01-.01.09.06.17.14s.16.15.18.15.09.03.16.06c.11.06.13.08.13.17 0 .1-.01.11-.09.11-.05 0-.13.02-.18.05-.1.05-.18.06-.3.01z"/></g><g fill="#0ba5e9"><path d="M18.8 14.16c.01-.11.03-.21.04-.23.03-.03.02.11-.03.32-.02.08-.02.06-.01-.09M23.9 7.29c-.03-.03-.03-.16.01-.18.02-.01.03.01.03.04 0 .05.01.05.03.01.03-.04.03-.04.03 0v.07c0 .01.02.02.05.02.04 0 .05.01.01.03-.05.03-.14.04-.17.01zM22.08 6.5c-.05-.03-.08-.08-.07-.09.01-.02 0-.02-.03-.01s-.05.01-.05-.01c0-.03-.18-.15-.23-.15a.4.4 0 0 1-.15-.08c-.1-.06-.11-.08-.08-.13.04-.04.03-.04-.01-.01-.06.05-.15.01-.22-.08-.04-.06-.18-.15-.22-.14-.02 0-.03-.01-.03-.02s-.17-.11-.39-.22-.38-.2-.38-.21c.01-.01.06-.02.13-.03s.14-.03.16-.05.08-.03.13-.03.1-.01.1-.01c0-.01-.08-.05-.18-.11-.19-.09-.48-.35-.45-.39.01-.01-.01-.01-.05 0-.06.01-.07 0-.07-.04 0-.05.02-.06.11-.05.07 0 .13.03.14.06.02.03.06.05.1.05.09 0 .23.06.23.1 0 .01.01.02.03.02.06-.01.13.01.18.05.03.03.04.04.02.03-.03-.02-.04-.01-.02.02.02.02.04.03.07.02.06-.02.39.14.39.19 0 .02.02.04.04.05.02 0 .05.01.07.01.07.01.23.09.23.11 0 .01.03.03.08.04.04.01.08.04.08.07s.03.05.07.05.06.01.05.02c-.04.04.06.19.21.32.31.28.31.27.29.47-.03.25-.12.31-.28.19z"/></g><g fill="#0cb2f1"><path d="M26.38 14.63c0-.02-.02-.02-.04-.01-.03.01-.04 0-.04-.03 0-.14-.05-.74-.06-.78s0-.06.06-.06c.08 0 .08.01.08.17 0 .09.01.29.02.45s.01.29 0 .29-.02-.01-.02-.03M25.98 12.46c-.06-.23-.06-.23 0-.24.1-.02.13.04.14.26.01.17.01.2-.03.2-.03 0-.07-.07-.11-.22M26.01 10.21c-.05-.05-.05-.17-.01-.2q.03-.015.03.03t.03.06c.02.01.02-.01.01-.05-.02-.09.03-.04.08.08.02.05.03.08.01.07s-.03 0-.03.01c0 .05-.07.04-.12 0M24.97 8.42c0-.05.01-.07.02-.05s.03.04.04.04c.02 0 .02-.02.01-.04s-.01-.03 0-.02c.02.01.03.05.04.08.01.04-.01.06-.05.06-.05 0-.06-.02-.06-.08zM24.28 8.14c0-.04.02-.09.03-.1.02-.01.03.01.03.04 0 .04.01.05.03.02s.03-.02.04.04c.01.07.01.08-.06.08-.06 0-.08-.02-.08-.08zM23.27 7.53c-.17-.17-.32-.3-.34-.29s-.02 0-.01-.02c.02-.03-.13-.22-.18-.22-.03 0-.59-.47-.63-.52q-.03-.045 0-.03c.05.03.13-.05.15-.14.02-.08 0-.11-.13-.23-.08-.08-.2-.18-.25-.22-.06-.04-.09-.09-.08-.11s0-.03-.02-.03-.03-.05-.03-.11c.01-.08.02-.11.06-.11.08 0 .37.19.34.23-.01.02 0 .02.03.02.03-.01.08.01.13.05.07.05.08.07.05.09s-.03.03.02.02c.11-.01.14 0 .13.04-.01.02.02.04.05.05.1.02.23.13.23.2 0 .03.02.06.04.06.08-.01.12.01.37.22.29.24.34.3.32.32-.01.01 0 .02.02.02s.04.04.04.09.02.1.04.12c.03.01.13.11.24.21.19.18.19.18.18.36-.01.17-.01.17-.18.17-.11 0-.18.01-.21.04s-.05.04-.07.04c-.01 0-.16-.14-.33-.31z"/></g><g fill="#16bef7"><path d="M22.78 23.85c0-.02.02-.03.03-.03.02 0 .02-.02.01-.04s-.01-.03.01-.01c.02.01.05-.01.07-.04s.05-.06.08-.06.05-.04.07-.09c.02-.09.07-.16.07-.1 0 .02.02.03.05.01.04-.02.04-.02.01-.04q-.045-.03 0-.03c.06 0 .08.06.03.08-.03.01-.05.04-.05.07q0 .06-.03 0c-.03-.04-.03-.04-.03 0 0 .03-.07.11-.16.18-.08.07-.16.12-.16.1M23.38 23.27c0-.03.02-.05.05-.05q.045 0 .03-.03c-.01-.02 0-.03.02-.03s.03-.01.02-.03q-.015-.03.03-.03c.04 0 .1-.08.09-.13 0-.01.04-.02.09-.02.09 0 .09 0-.09.18-.2.19-.22.21-.22.13z"/><path d="M23.7 23.28c-.01-.02.01-.03.03-.03.03 0 .04-.01.03-.02-.03-.03.23-.29.27-.27.02.01.02.01.01-.01s.05-.11.13-.2.2-.24.27-.32c.16-.21.22-.27.25-.24.01.01.02 0 .01-.03-.01-.06.16-.32.2-.29.02.01.02 0 .01-.01-.01-.02.01-.07.04-.1.03-.04.06-.06.06-.04s.02.04.05.04c.04 0 .04-.01 0-.05-.05-.05-.04-.06 0-.13.03-.04.07-.1.1-.12s.04-.04.04-.05c-.02-.02.17-.33.2-.32.01.01.02-.01.01-.03-.01-.03 0-.05.04-.05.05 0 .05-.01.01-.03-.03-.02-.03-.03-.01-.03s.04-.02.04-.04c0-.07.14-.3.17-.28.01.02.02.01.01-.01-.02-.04.15-.41.18-.39.01.01.03 0 .04-.01s0-.01-.02 0c-.06.03-.05-.01.03-.16.04-.07.08-.17.09-.21.01-.05.04-.08.08-.08.03 0 .04-.01.02-.03s.01-.12.08-.32c.06-.16.12-.28.13-.25s.01.01 0-.03c-.01-.08.04-.25.08-.25.02 0 .02-.03.01-.06s0-.06.02-.06.03-.02.02-.05-.01-.05.01-.05.03-.02.03-.04c0-.09.08-.35.13-.37.02-.01.04-.04.04-.06s-.01-.02-.03.01c-.03.03-.03.02-.01-.05.01-.05.03-.11.04-.12.01-.02.02-.08.03-.13.01-.06.03-.14.05-.17.02-.04.04-.11.04-.17 0-.05.03-.26.06-.46.05-.32.06-.36.12-.35.03.01.05 0 .04-.02s-.03-.02-.05-.01c-.03.02-.03-.09-.01-.32.01-.09.03-.16.05-.15s.03 0 .03-.02q0-.03-.03-.03c-.02 0-.03-.02-.02-.04.02-.06.04-.53.05-.77 0-.13.01-.19.03-.17.03.01.03 0 0-.04-.03-.06-.05-.31-.04-.78 0-.18-.01-.25-.03-.24-.03.02-.03-.03-.02-.15.01-.1.01-.14-.01-.11-.02.05-.03.05-.03-.04 0-.08.01-.1.05-.08s.04 0-.02-.05c-.07-.07-.1-.18-.04-.14q.03.015.03-.03t-.03-.03c-.03.02-.03.02-.12-.46-.04-.19-.06-.35-.04-.37.01-.02.01-.03-.01-.02s-.04-.03-.06-.1c-.01-.06-.06-.24-.1-.4-.04-.15-.08-.32-.08-.37s-.01-.08-.03-.07c-.02.02-.03 0-.02-.03s.01-.05-.01-.06c-.04-.02-.22-.55-.2-.63.01-.05.01-.06-.01-.03s-.04 0-.08-.09c-.03-.07-.04-.14-.03-.16s0-.02-.02-.01-.04 0-.04-.03c0-.08-.01-.09-.05-.14a.08.08 0 0 1-.03-.09c.01-.03 0-.03-.02-.02-.03.01-.03 0-.01-.05.01-.04.01-.06-.01-.05-.04.02-.25-.41-.23-.47.01-.03 0-.04-.02-.03-.03.03-.23-.32-.2-.36.01-.02 0-.03-.02-.01-.02.01-.07-.04-.11-.13-.09-.16-.1-.18-.04-.15.02.01.03.01.01-.02-.01-.02-.04-.03-.05-.02q-.03.015-.03-.03t-.03-.06c-.02 0-.09-.1-.17-.21s-.2-.28-.28-.38-.14-.2-.13-.22.01-.03-.01-.01c-.02.01-.04.01-.04-.01s-.03-.07-.08-.12c-.04-.05-.09-.11-.11-.13a.15.15 0 0 0-.09-.04c-.03 0-.04.01-.01.02.02.01.04.03.04.06s.05.09.1.15.12.12.13.14c.02.02.07.09.12.14.05.06.08.14.08.18s.01.07.03.07h.06c.05 0 .17.24.14.27-.01.02-.01.02.01.01.04-.02.15.15.12.2-.01.02 0 .03.02.03.05 0 .35.52.32.56-.01.02-.01.03.01.03.02-.01.11.13.19.3.12.24.14.32.11.32-.03.01-.05.03-.05.04 0 .02.03.03.07.02.06-.02.06-.01.05.06-.02.08 0 .17.05.17.02 0 .02-.02-.01-.05-.02-.03-.03-.05-.01-.05.04 0 .1.15.11.25 0 .04.03.09.05.11.03.02.05.08.05.13s.01.09.03.08c.03-.02.15.36.13.39-.01.02 0 .03.02.04.03.01.03.02 0 .02-.02 0-.04.02-.04.03 0 .02.02.03.04.02.05-.01.13.25.1.35-.02.06-.01.07.02.03s.03-.03.02.03c-.01.04-.01.07.01.07.04 0 .13.43.11.5-.02.05-.01.06.02.05.03-.02.04 0 .02.08s-.01.09.01.06c.03-.03.03-.02.02.07-.01.06 0 .11.01.1.04-.03.14.75.14 1.07 0 .12.01.19.03.19s.02.01-.01.03-.03.03-.01.05c.04.03.05.2 0 .22-.02.01-.03.04-.03.07s.02.04.03.03q.03-.015.03.03c0 .03-.01.06-.03.07s-.03.04-.03.06c0 .03.01.03.02 0 .04-.1.06-.02.05.24 0 .21-.02.29-.05.31q-.06.03 0 .03c.03 0 .03.01 0 .05s-.03.05 0 .06c.02.01.04.03.04.06q0 .045-.03.03c-.02-.01-.03.01-.03.05 0 .06.01.06.03.03.03-.03.03-.01.01.09-.01.08-.02.18-.02.23.01.19-.07.69-.11.71-.03.01-.04.04-.04.06s.01.02.03-.01c.03-.04.03-.03.03.03 0 .13-.1.61-.13.64-.02.02-.02.02-.01-.01.02-.03.01-.04-.01-.02-.03.02-.03.04-.01.06.06.07-.28 1.3-.36 1.3-.02 0-.04.02-.04.03 0 .02.02.02.03.01.04-.02.04.03.01.06-.02.01-.03.03-.03.04 0 .08-.09.28-.12.27-.02-.01-.02 0-.01.02.03.05-.14.47-.2.47-.03 0-.03.01-.01.02s-.01.11-.09.29c-.07.15-.14.27-.15.26-.02-.01-.02.01-.01.03.01.03 0 .05-.02.05s-.03.02-.03.05c0 .07-.13.29-.18.29-.02 0-.04.02-.04.03 0 .02.01.02.03.01s.02 0 .01.03-.03.05-.04.05-.03.03-.04.08-.03.07-.08.06c-.04-.01-.04-.01-.01.01s.02.06-.05.18c-.05.08-.11.15-.13.15-.02-.01-.03.01-.02.04s-.02.08-.07.13-.09.1-.09.12c0 .04-.15.26-.18.26-.02 0-.03.02-.03.03 0 .06-.19.28-.27.31-.05.02-.07.05-.06.07.02.05-.22.36-.27.36-.01 0-.03-.03-.03-.08 0-.04.02-.08.03-.08.03 0 .03-.02 0-.05-.03-.04-.03-.06 0-.09.02-.03.05-.04.07-.03s.02 0 .01-.01c-.03-.04.16-.28.2-.27.01.01.02-.01.01-.04-.02-.04.04-.07.12-.05.01 0 .01-.03-.01-.06-.02-.04-.02-.06 0-.05.04.02.07-.05.04-.09s-.11-.05-.09-.02c.01.02-.01.04-.05.05s-.06.04-.05.07 0 .04-.01.03q-.03-.015-.03.03c0 .03-.03.05-.07.06-.05.01-.06.01-.03-.03.03-.03.03-.04 0-.04q-.045 0 0-.06c.03-.04.04-.05.06-.02s.03.03.04-.06c.01-.05.18-.31.23-.35s.02-.12-.05-.09c-.03.01-.04 0-.03-.02s.03-.04.05-.03c.02 0 .03-.01.02-.03-.02-.04.19-.36.24-.36.02 0 .04-.02.05-.05.01-.04.01-.04-.02 0-.02.03-.03.03-.03.02 0-.05.08-.14.12-.14.02 0 .03-.02.03-.04-.01-.07.21-.46.26-.47.03 0 .03-.01.01-.02-.03-.01-.03-.04.01-.11.03-.05.06-.08.08-.08.02.01.02-.01.01-.03-.02-.04-.01-.05.02-.03s.03.01.02-.01c-.03-.06.04-.22.1-.22.03 0 .03-.01.01-.02-.05-.02.02-.17.07-.17.02 0 .05-.02.06-.04.02-.02.01-.03-.03-.02-.04.02-.04.01 0-.12.03-.08.06-.14.08-.14.01 0 .03-.03.03-.06 0-.09.03-.16.07-.14.02.01.02 0 .01-.02-.03-.04.04-.29.08-.29.02 0 .02-.01.01-.03-.03-.04.05-.26.08-.24.02.01.02-.01.01-.04s0-.06.03-.08.05-.04.05-.07c0-.02-.01-.02-.03.01-.03.04-.03.03-.02-.02.14-.54.17-.69.17-.74 0-.03.02-.06.04-.06.03 0 .06-.01.07-.03s0-.02-.03-.01c-.05.02-.05.01-.03-.08.01-.06.02-.12.02-.13 0-.02.02-.02.04-.01s.03.01.01-.02c-.03-.04.08-.82.11-.82.01 0 .01-.09.01-.19-.01-.12 0-.18.02-.17s.03-.03.02-.11c-.01-.1-.01-.12.02-.09.03.04.03.04.03-.01 0-.03-.02-.06-.03-.07-.02-.02-.03-.08-.01-.18.01-.08.02-.2.02-.27 0-.08.01-.1.03-.07s.03.03.03.01-.01-.05-.03-.06-.03-.04-.03-.07.02-.04.03-.03q.03.015.03-.03t-.03-.03c-.01.01-.03-.06-.03-.16s.01-.16.02-.14c.02.03.03.01.03-.05 0-.07-.01-.09-.05-.07-.03.01-.04 0-.02-.02.04-.07.06-.26.02-.28-.02-.01-.03-.06-.03-.1v-.21a.5.5 0 0 0-.03-.19c-.04-.08-.16-.86-.14-.94.02-.06.01-.07-.02-.03s-.03.03-.02-.04c.01-.05 0-.08-.01-.08s-.02-.05-.02-.12-.02-.17-.05-.23c-.07-.14-.21-.57-.19-.6.01-.01 0-.03-.02-.03-.02-.01-.04-.07-.04-.13-.01-.07-.03-.13-.05-.14s-.04-.07-.04-.12-.01-.09-.02-.08c-.02.01-.07-.12-.07-.19 0-.02-.01-.04-.02-.05-.05-.04-.3-.67-.29-.71s.01-.04-.01-.01-.04.02-.07-.04c-.02-.05-.03-.1-.02-.12s.01-.03-.01-.02-.04 0-.05-.03-.01-.04.02-.03c.02.01.03.01.03-.02-.01-.02-.03-.04-.04-.03-.03 0-.27-.4-.27-.45 0-.02.02-.02.04 0 .02.01.03.01.01-.02-.01-.02-.03-.03-.05-.02-.03.02-.32-.44-.32-.5q0-.03-.03-.03c-.01.01-.04-.01-.06-.05-.03-.04-.03-.07.01-.08.02-.01.02-.02-.02-.02-.03 0-.13-.11-.22-.23-.09-.13-.22-.29-.28-.37a.8.8 0 0 1-.14-.22c-.01-.05-.04-.08-.05-.08-.04 0-.18-.16-.18-.2 0-.02.03-.05.07-.08.03-.03.05-.06.03-.06s-.03-.01-.02-.03 0-.03-.01-.03q-.03 0-.03-.03c0-.02.02-.02.05-.01s.06 0 .08-.03q.03-.045.03 0c0 .02.03.04.06.04.07 0 .09.08.03.1-.02.01 0 .02.05.03s.09 0 .1-.01c.01-.02 0-.03-.02-.03-.04 0-.04-.08 0-.1.04-.01.02-.04-.22-.26-.21-.2-.3-.32-.25-.34.02-.01 0-.05-.03-.08-.03-.04-.06-.08-.06-.1s-.03-.02-.06-.01c-.05.01-.06 0-.06-.08 0-.05.01-.09.02-.09.03 0 .19.14.17.16-.01.01.01.03.05.03s.06.01.04.04c-.02.02-.01.03.03.02.05-.02.18.09.18.16 0 .02.01.03.03.02.03-.02.16.1.16.15 0 .04.07.1.17.14.05.02.08.05.07.08-.01.02-.01.03.01.01.04-.02.11.08.08.12-.01.01 0 .02.03.02.06 0 .23.18.21.23 0 .02.01.02.02.01.04-.03.11.07.08.11-.01.02-.01.03 0 .02.04-.04.11.03.09.09-.01.04-.01.04.02.01s.05-.02.11.08c.04.07.11.15.14.18s.06.08.05.1c-.02.04.09.17.14.17.02 0 .05.04.08.08.04.06.04.09.02.12-.03.03-.03.04.02.03.04-.01.08.02.13.1.04.06.06.1.04.09q-.03-.015-.03.03c0 .03.02.05.06.04.03-.01.05.01.05.04s.01.05.02.04c.03-.02.09.08.07.14-.01.03 0 .03.02.02s.05.01.07.04c.04.08.04.11 0 .08-.03-.01-.03-.01-.02.01q.03.03.06.03t.03.03c0 .01.03.05.07.09.03.03.06.08.05.11s0 .04.01.03c.02-.01.03 0 .03.01 0 .06.01.08.05.12.02.02.04.06.04.08.01.16.04.23.11.29.05.04.07.07.05.06s-.04 0-.04.01c0 .02.02.03.05.03s.04.02.03.05-.01.04.02.03c.02-.01.03 0 .03.02-.01.09 0 .16.03.14s.1.11.07.15c-.01.02 0 .03.02.03s.03.03.01.06c-.01.03-.01.04.01.03.04-.03.17.32.15.4-.01.06-.01.06.02.02s.03-.03.02.03c-.01.04-.01.06.01.05.04-.02.18.47.17.55-.01.05-.01.06.02.03s.03-.02.05.05c.01.06.01.12 0 .13-.01.02-.01.03.01.02.03-.02.16.39.18.58.01.06.02.12.03.13.01.02.03.08.04.14.02.1.02.1-.02.05s-.04-.05-.05.02c0 .06.01.08.05.06.05-.01.06.02.11.35.03.2.05.4.04.44s0 .07.01.06c.03-.02.04.12.04.74 0 .33 0 .38.02.22.02-.2.03-.19.03.12.01.24 0 .32-.03.32s-.03.01.01.03c.04.03.04.03 0 .03s-.04 0 0 .03c.03.02.03.03.01.03s-.04.02-.04.04c0 .03.02.05.04.06.03.01.03.02 0 .02-.02 0-.04.04-.04.08 0 .05.01.07.04.06.02-.02.02 0-.01.03s-.03.05-.01.03c.03-.02.04.01.03.11-.01.13-.01.13-.03.03s-.02-.1-.03-.02c0 .05.01.12.03.15.02.04.02.07.01.08-.02.01-.03.09-.03.17-.01.45-.07.86-.13.92-.03.02-.03.03-.01.02.03-.01.04.01.04.06 0 .06-.01.08-.04.07s-.04 0-.04.03q0 .03.03.03c.03-.02.03.01-.01.22-.02.1-.05.18-.07.18s-.02.02-.01.03c.03.04-.14.69-.26 1.06-.05.14-.09.25-.1.23s-.01-.01 0 .02-.01.11-.04.2c-.04.12-.06.14-.08.11-.03-.03-.03-.03-.01.01.02.07-.07.34-.11.34-.02 0-.02-.02.01-.05.03-.05.03-.05 0-.02-.02.02-.05.07-.05.11-.01.06 0 .06.02.03.06-.09.03 0-.07.22-.06.14-.12.22-.15.22q-.06 0 0 .03c.04.03.04.03-.02.03-.05 0-.05.01-.02.03s.03.03.01.03-.03.02-.02.05 0 .05-.03.07c-.03.01-.04.03-.03.04.02.04-.13.28-.16.26-.01-.02-.02-.01 0 .01.03.06-.08.24-.12.19-.02-.03-.02-.01-.01.03s0 .08-.02.09-.04.03-.04.06c0 .06-.26.45-.3.45-.02 0-.02-.02.01-.05.02-.03.03-.06.02-.07s-.02 0-.02.02-.01.03-.03.02c-.01-.01-.03.01-.03.05 0 .03.01.06.03.06s.03.01.02.03-.05.03-.09.02q-.075-.015-.06.03c.01.02.04.03.07.03q.06-.03 0 .03c-.03.03-.05.06-.05.07.02.03-.33.48-.36.47-.02-.01-.02 0-.01.02s0 .05-.03.06c-.03.02-.05.04-.05.06s-.02.03-.03.02c-.01 0-.02.01-.02.02.02.05-.13.22-.17.2-.02-.01-.03-.01-.01.01.01.02-.03.09-.1.16-.11.13-.12.13-.14.06-.03-.07-.03-.07-.08 0-.03.04-.05.08-.03.08.02.01.02.03-.01.06-.05.06-.01.06.05-.01.03-.03.06-.04.06-.04.01.01-.03.06-.08.11s-.09.07-.08.04.01-.07-.01-.09c-.03-.04-.04-.04-.09.01-.03.03-.08.05-.09.05-.02 0-.04.02-.04.05s-.02.04-.04.04a.022.022 0 0 0-.03.03c.01.04-.14.05-.17.01zm.18-.13c.04-.03.05-.06.03-.06s-.06.03-.09.06-.05.06-.03.06c.01 0 .05-.03.09-.06M24.5 22c0-.02.02-.04.04-.05.03-.01.03-.02 0-.02s-.05.03-.06.06-.03.06-.04.05-.03.02-.03.05c-.01.06 0 .06.04.01.03-.03.05-.08.05-.1m2.27-7.53c-.01-.03-.02-.01-.02.05s.01.08.02.06c.01-.03.01-.08 0-.11m-.09-2.12c-.03-.03-.03-.02-.02.02.01.03.02.08.02.09 0 .02.01.01.02-.02a.08.08 0 0 0-.03-.09z"/><path d="M23.5 22.42c.07-.1.34-.39.34-.36 0 .01-.09.11-.19.22-.11.11-.17.17-.15.14M24 21.84c.03-.02.04-.03.02-.03-.01 0 .01-.04.05-.08.04-.05.11-.13.16-.18.04-.05.08-.08.08-.06s-.05.09-.11.15-.13.14-.14.17c-.02.03-.05.06-.07.06s-.02-.01.01-.03"/></g><g fill="#3bcbfb"><path d="M16.4 26.7c-.04-.04-.02-.07.05-.07.05 0 .06.01.01.02-.03.01-.05.03-.04.04.02.03 0 .04-.03.01zM16.91 26.7c.03-.01.06-.04.07-.08.02-.08.09-.08.08.01-.01.05-.03.07-.1.08-.05 0-.07 0-.04-.01zM17.24 26.67c.02-.01.03-.03.02-.04s.01-.03.03-.04c.04-.01.05-.01.03.03-.01.03 0 .05.01.05.02 0 .03-.03.03-.06s.02-.07.05-.08.04-.01.03.02c-.01.02-.03.07-.04.1s-.05.05-.12.05c-.05 0-.08-.01-.06-.02zM17.44 26.62c0-.02.02-.02.03-.01q.03.015.03-.03c0-.03.02-.05.04-.04s.05-.01.07-.03c.03-.03.05-.03.11 0 .08.03.08.03.01.04-.04.01-.07.03-.07.06s-.03.04-.11.04c-.06 0-.11-.02-.11-.03M17.88 26.56c0-.02-.01-.03-.03-.02-.04.03-.11-.07-.08-.11s.11-.04.11 0c0 .02-.03.02-.05.01-.05-.02-.05-.01-.01.01.05.04.09.02.09-.04 0-.03.02-.04.03-.04.02 0 .03.02.02.05s-.01.05.01.06c.06.03.03.11-.03.11-.03 0-.06-.02-.06-.03M18.25 26.5c0-.01-.03-.02-.07-.01-.08.02-.17-.07-.13-.11s.42-.13.47-.11c.03.01.04 0 .04-.01 0-.02.04-.03.09-.02.07.01.09 0 .09-.04 0-.03.02-.05.03-.05.02 0 .03.02.02.05s0 .05.05.04c.04 0 .05-.01.03-.02-.06-.02-.05-.11.02-.1.03.01.05.03.05.07q0 .045.03.03c.02-.01.02-.04.01-.08-.02-.06.07-.12.11-.07.01.01.04.03.06.03.04.01.04 0 0-.04-.04-.05-.04-.05.01-.03.03.01.05.01.05-.01s.05-.04.11-.05.12-.03.13-.05.05-.03.09-.03.08-.02.11-.04c.03-.03.05-.03.09.01.05.04.05.04.04-.01-.02-.04.01-.07.11-.1.07-.03.16-.04.2-.03s.07.01.07-.02c0-.02-.03-.03-.05-.01-.05.02-.04.01.01-.03.03-.03.08-.05.11-.05q.06 0 0 .03c-.04.03-.04.03.01.02.03-.01.07-.02.07-.02q.015 0 0-.03c-.02-.03.17-.13.26-.13.03 0 .06-.01.05-.03-.02-.03.02-.04.11-.03.02.01.03-.01.02-.02-.02-.04.07-.08.12-.05.02.01.03.01.01-.01-.02-.03.21-.18.28-.18.02 0 .04-.01.04-.02s.04-.04.09-.07c.08-.04.1-.05.11-.02.04.12.05.13.04.03s.03-.13.09-.07c.02.02.03.02.03-.01q0-.045-.03-.03c-.01.01-.03 0-.03-.02q0-.03.03-.03c.02 0 .17-.1.35-.23.2-.14.34-.22.38-.21.03.01.04.01.03-.01-.03-.04.03-.11.11-.11.03 0 .05-.01.04-.03s.02-.04.05-.06c.04-.02.1-.05.15-.07.04-.02.05-.03.02-.02-.05.02-.05.01-.02-.03.03-.03.05-.04.08-.02.03.03.04.02.03-.02 0-.06.22-.19.3-.17.02 0 .02-.01.01-.03q-.015-.03-.09 0c-.04.02-.05.02-.04.01.24-.21.24-.21.22-.16s-.01.05.03.02c.03-.02.05-.06.05-.08s.03-.07.07-.11c.08-.07.13-.09.1-.04-.01.02.01.03.05.03.05 0 .06-.02.05-.08s.01-.1.07-.14c.04-.03.09-.06.1-.05s0 .03-.03.04c-.03.02-.03.03.01.04.03.01.05 0 .05-.03q0-.045.06-.03c.04.01.03 0-.02-.04-.08-.06-.08-.06.01-.09s.24-.16.19-.16c-.01 0 0-.03.03-.06s.07-.06.08-.06c.02 0 .07-.05.12-.11.07-.08.12-.11.18-.1.07.01.08.02.08.09q0 .18-.12.15c-.05-.01-.07 0-.06.02s-.03.09-.09.15-.09.12-.08.12c.02 0 .06-.05.11-.1.04-.06.08-.09.08-.07 0 .05-.27.3-.3.28-.01-.02-.02-.01-.01.01s-.05.1-.13.17c-.2.19-.3.27-.28.22.04-.06-.03-.05-.08.02-.03.04-.04.06-.02.06s.01.03-.02.06-.06.06-.07.05-.05.03-.09.08-.09.09-.12.09c-.05-.01-.14.04-.14.08 0 .02.03.01.06-.01.03-.03 0 .01-.07.07s-.13.11-.14.1-.05.03-.09.07c-.04.05-.09.07-.11.05-.02-.01-.03-.01-.02 0s.01.04-.01.07c-.04.05-.1.06-.08.01.01-.02 0-.03-.02-.03s-.03.03-.03.06c.01.03-.01.05-.04.05s-.05.01-.04.02-.01.04-.03.06c-.03.02-.05.03-.05.01s-.02 0-.03.03c-.02.03-.05.05-.07.04-.03-.01-.05 0-.07.02-.02.03-.01.03.02.02s.01.01-.03.04-.09.06-.12.05c-.02-.01-.04 0-.03.02.01.04-.54.38-.59.36-.02-.01-.04 0-.03.02.01.04-.36.24-.41.22-.03-.01-.04 0-.03.02.02.03-.23.17-.32.17-.03 0-.06.01-.06.03s-.03.03-.06.04-.06.01-.05-.01-.02-.02-.07-.01-.07.02-.04.04c.05.03-.01.06-.29.17-.11.04-.24.07-.28.06-.06-.01-.06-.01-.03.02.04.03.04.03 0 .02a.09.09 0 0 1-.06-.06c-.01-.04 0-.05.05-.03.04.02.05.01.01-.01-.03-.02-.06-.03-.08-.02s-.02 0-.01-.03.01-.05-.01-.05-.03.02-.03.03c0 .02-.01.03-.02.03-.07-.01-.14.01-.12.03.01.01.05.02.09.01.06-.01.08 0 .09.07q.03.135-.06.03c-.03-.05-.05-.05-.08-.02s-.03.04.02.02c.04-.02.05-.01.05.03 0 .03-.02.05-.05.03-.03-.01-.04-.01-.03.02.02.02 0 .03-.06.02-.05-.01-.08-.01-.07.01.02.03-.57.2-.61.17-.02-.01-.02-.04-.01-.06q.03-.045-.03 0c-.04.03-.06.03-.09 0-.02-.02-.03-.03-.02-.01s0 .04-.03.07c-.04.03-.03.03.06.03.08-.01.06 0-.05.03-.26.07-.36.08-.36.05zm2.56-.88c0-.02.02-.02.03-.01.02.01.03.01.03-.01 0-.06-.06-.07-.09 0q-.03.06 0 .06c.02 0 .03-.02.03-.03zm.98-.52c.01-.02 0-.04-.02-.05s-.03 0-.03.02c.01.02-.01.04-.04.04s-.05.02-.05.04c0 .04.09.01.13-.05zm.42-.56c0-.04-.01-.04-.05 0-.03.02-.06.04-.07.05h.06c.03 0 .07-.03.07-.05zm.7-.22c.05-.06.05-.06-.03-.02-.04.02-.07.05-.07.06.02.03.03.03.09-.04z"/><path d="M18.64 26.01c-.03-.04.09-.07.14-.03.03.03.03.03-.01.02-.03-.01-.07 0-.08.02-.02.02-.04.02-.05 0zM18.83 25.94c-.03-.04.14-.07.2-.03.05.03.05.03 0 .02-.03-.01-.06-.01-.07.01-.03.03-.11.03-.13.01zM19.21 25.83c.01-.04.04-.05.08-.03.05.01.06.01.04-.02s-.01-.03.01-.02.04.01.04-.01.03-.04.06-.04c.03-.01.06 0 .06.03s-.03.04-.06.04-.07.02-.08.03c-.01.02-.04.03-.06.02s-.06 0-.08.02c-.03.03-.03.03-.02-.02zM19.66 25.65c.02-.03.05-.06.07-.05s.06-.01.08-.03c.03-.03.06-.03.09-.01.04.03.04.03-.01.02-.03-.01-.06 0-.06.02-.01.02-.06.05-.11.08-.1.04-.1.04-.07-.02zM20.09 25.44c.06-.06.11-.07.18-.06.01 0 .03-.02.05-.04.02-.03.03-.03.03.02s-.02.06-.08.05c-.01 0-.04.02-.07.05s-.08.05-.12.05c-.07 0-.07 0 .01-.06zM20.38 25.33c0-.03.01-.04.03-.04a.7.7 0 0 0 .17-.09c.08-.05.17-.09.19-.08s.04.01.04-.01.04-.05.09-.08c.07-.05.08-.05.04 0-.02.03-.03.05-.02.05.02 0-.01.03-.06.06s-.1.06-.12.05c-.01-.01-.03 0-.03.02 0 .03-.12.08-.18.07-.02-.01-.04 0-.04.02s-.03.04-.06.06c-.05.03-.06.03-.06-.01zM21.02 24.98c-.02-.05.07-.11.13-.08.03.01.03 0 .02-.02-.03-.04.1-.11.16-.09.03.01.04.01.03-.02-.02-.04.14-.17.23-.18.03-.01.06-.02.07-.04.02-.02.03-.02.03.01 0 .02.02.03.06.02.04-.02.04-.01-.01.03s-.07.04-.11.01-.04-.03-.03.02c.02.04 0 .05-.05.04s-.07 0-.05.04q.015.045-.03.03c-.03-.01-.05 0-.05.02s-.07.08-.15.13c-.22.14-.22.14-.24.09zM21.77 24.52c-.05-.04-.05-.04.06-.11.08-.05.13-.06.18-.04.07.03.07.03-.02.06-.05.03-.08.03-.06 0 .01-.02-.01-.02-.04.01q-.06.045-.03.06c.02.01.02.03.01.04-.02.01-.06 0-.09-.02zM22.19 24.25c-.03-.02-.03-.05-.03-.08.03-.07.08-.03.08.05 0 .03 0 .06-.01.06 0 0-.02-.01-.04-.03M22.51 24.01c0-.08.07-.19.13-.19.02 0 0 .02-.04.05-.05.04-.07.07-.05.13.01.04.01.08 0 .08-.02.01-.03-.02-.03-.07zM23.04 23.58c.01-.06.01-.08-.03-.07-.02.01-.04.01-.04 0s.03-.03.07-.04c.07-.03.12.01.12.09 0 .04 0 .04-.03 0s-.03-.04-.03.01c0 .03-.02.06-.03.07-.02.01-.03-.01-.02-.06zM23.2 23.48c.01-.03.01-.04-.02-.04-.02 0 0-.03.05-.06s.08-.06.08-.08c0-.01.01-.02.03-.01s.02 0 .01-.03 0-.05.05-.05c.08 0 .08.01-.03.13-.06.06-.09.08-.08.06.02-.03.01-.04-.02-.03s-.04.03-.04.05q0 .03-.03.06c-.02.02-.02.01-.01-.01zM23.48 23.14c0-.03.02-.05.03-.05.02 0 .05-.03.07-.05.03-.04.03-.07 0-.1q-.045-.045 0-.03c.04.03.12-.05.08-.08-.01-.01.01-.02.05-.02.06 0 .07-.01.03-.05-.03-.04-.03-.05 0-.02.04.04.16.02.16-.03 0-.02.02-.02.03-.01.02.01.02-.01-.01-.04-.03-.05-.05-.06-.09-.03-.03.02-.01-.01.03-.07s.08-.09.09-.07.03.04.04.04c.02 0 .02-.02-.01-.05-.03-.04-.03-.06 0-.09.02-.03.05-.04.06-.03.02.01.03 0 .04-.02s.02-.03.03-.02 0 .06-.03.1-.04.09-.03.11 0 .03-.02.03q-.045 0 0 .03c.04.03-.04.13-.17.19-.04.02-.06.05-.05.07.03.05-.05.13-.13.11q-.06-.015-.03 0c.02.01.04.03.04.05s-.01.03-.03.02-.03-.01-.04 0c-.01.02-.05.06-.09.1-.06.05-.08.06-.08.02z"/></g><text x="50.109%" y="62.677%" fill="#0f6fb9" dominant-baseline="central" font-family="Arial" font-size=".077" text-anchor="middle">FrozenUSDT</text></svg>